<?xml version="1.0" standalone="no"?>
<!DOCTYPE svg PUBLIC "-//W3C//DTD SVG 20010904//EN"
 "http://www.w3.org/TR/2001/REC-SVG-20010904/DTD/svg10.dtd">
<svg version="1.0" xmlns="http://www.w3.org/2000/svg"
 width="433.000000pt" height="577.000000pt" viewBox="0 0 433.000000 577.000000"
 preserveAspectRatio="xMidYMid meet">

<g transform="translate(0.000000,577.000000) scale(0.100000,-0.100000)"
fill="#000000" stroke="none">
<path d="M1924 4201 c-5 -4 -34 -13 -64 -20 -82 -19 -108 -30 -185 -79 -38
-25 -85 -55 -103 -66 -37 -24 -142 -150 -142 -172 0 -7 -11 -37 -24 -66 -14
-29 -37 -91 -51 -138 -25 -82 -26 -89 -15 -185 6 -55 13 -102 15 -105 7 -11
55 -311 55 -343 0 -23 -8 -40 -28 -58 -27 -23 -29 -29 -27 -89 5 -152 23 -278
47 -332 14 -29 31 -75 38 -103 7 -27 31 -88 53 -135 22 -47 41 -103 43 -125 9
-180 48 -329 124 -475 10 -20 23 -80 17 -80 -3 0 -15 26 -28 58 -13 31 -30 63
-38 70 -9 8 -10 11 -3 7 17 -9 16 -2 -12 68 -36 90 -77 238 -69 250 3 6 1 7
-5 3 -7 -4 -12 -13 -12 -21 0 -8 -15 -17 -35 -21 -19 -3 -35 -10 -35 -16 0 -5
-4 -7 -9 -3 -14 8 -61 -16 -61 -33 0 -10 -7 -12 -26 -8 -17 5 -23 3 -19 -4 3
-5 -1 -10 -10 -10 -13 0 -151 -64 -164 -76 -2 -2 2 -12 10 -21 13 -17 12 -17
-6 -2 -21 17 -50 15 -39 -3 4 -7 2 -8 -4 -4 -6 4 -21 2 -32 -4 -18 -10 -19
-14 -8 -28 12 -15 11 -16 -4 -3 -15 11 -23 11 -53 -3 -21 -10 -33 -22 -29 -28
4 -7 2 -8 -5 -4 -14 9 -43 -12 -35 -25 3 -5 -1 -6 -9 -3 -18 7 -160 -83 -152
-96 3 -5 0 -7 -8 -4 -8 3 -28 -8 -45 -25 -18 -16 -32 -27 -32 -25 0 2 -18 -8
-40 -22 -22 -15 -37 -31 -33 -37 3 -5 1 -7 -5 -3 -12 7 -46 -35 -34 -44 10 -7
9 -26 -2 -37 -5 -5 -6 -3 -2 5 4 6 2 12 -3 12 -6 0 -10 3 -9 8 2 4 -1 7 -7 7
-5 0 -9 -3 -7 -7 2 -7 -5 -9 -25 -7 -10 1 -21 -33 -16 -48 4 -9 11 -8 28 3 21
14 23 14 21 0 -1 -9 -6 -19 -11 -23 -4 -4 -5 -2 -1 5 12 20 -10 14 -30 -10
-19 -21 -19 -21 1 -14 12 4 1 -12 -28 -41 -46 -48 -67 -84 -27 -48 20 18 50
29 50 19 0 -10 -56 -74 -64 -74 -6 0 2 13 17 28 38 39 34 52 -5 16 -17 -16
-28 -23 -24 -16 14 24 -12 12 -29 -14 -9 -14 -19 -23 -23 -20 -3 4 22 35 56
69 34 34 62 67 62 72 0 5 -27 -17 -60 -50 -44 -44 -59 -53 -55 -37 13 70 -56
6 -136 -125 -86 -142 -209 -438 -193 -465 4 -6 3 -8 -3 -5 -12 8 -37 -69 -27
-85 4 -6 3 -8 -3 -5 -17 10 -31 -68 -32 -176 -1 -65 2 -96 9 -92 5 3 10 -3 10
-14 0 -12 -3 -21 -7 -21 -5 0 -9 -43 -11 -95 -2 -63 0 -95 7 -95 6 0 11 -7 11
-15 0 -8 -3 -15 -7 -15 -5 0 -9 -23 -11 -50 l-3 -50 130 0 c94 0 131 3 134 13
4 9 6 9 6 0 1 -10 115 -13 536 -13 421 0 535 3 535 13 0 9 2 9 8 -1 11 -16
250 -16 270 0 8 7 12 7 12 -1 0 -16 202 -13 212 3 6 8 8 8 8 -1 0 -16 228 -17
247 -1 9 7 13 7 13 -1 0 -6 7 -11 15 -11 8 0 15 6 15 13 0 9 2 9 9 -1 5 -9 23
-12 52 -9 35 3 40 5 22 11 -30 11 -27 49 3 42 18 -5 21 -2 17 14 -3 12 0 20 7
20 6 0 11 -10 10 -22 -4 -49 0 -68 16 -68 14 0 15 13 10 112 -14 248 -16 334
-18 588 -3 282 1 313 54 465 12 33 25 80 30 105 14 78 15 85 23 103 4 10 3 17
-4 17 -6 0 -8 6 -5 14 3 8 14 14 25 13 13 -1 18 -6 13 -17 -13 -31 -24 -74
-20 -78 3 -2 12 14 21 35 9 21 22 48 27 60 6 11 8 26 4 31 -6 11 43 76 51 68
3 -2 -9 -34 -26 -69 -17 -36 -31 -70 -31 -76 0 -6 -9 -26 -20 -46 -11 -20 -20
-40 -20 -45 0 -10 -32 -87 -51 -122 -5 -10 -9 -26 -9 -36 0 -10 -3 -22 -7 -26
-4 -3 -8 -12 -10 -19 -1 -7 -7 -30 -13 -52 -20 -77 -6 -981 16 -1017 7 -10 34
-10 35 0 3 37 0 240 -6 330 -5 80 -4 112 4 112 14 0 13 5 16 -110 6 -237 15
-335 30 -338 29 -7 35 67 40 478 4 327 9 457 21 525 3 17 7 41 9 55 2 14 8 43
14 65 5 22 12 62 15 90 4 27 11 54 16 59 6 6 10 6 10 0 1 -5 7 5 15 21 l14 30
-2 -30 c-1 -20 -7 -30 -17 -29 -12 1 -16 -11 -16 -50 -1 -28 -5 -62 -9 -76 -4
-14 -9 -38 -11 -55 -3 -16 -7 -41 -9 -55 -12 -73 -15 -108 -19 -245 -3 -82 -8
-269 -11 -415 -3 -146 -8 -289 -11 -317 -4 -43 -2 -53 11 -53 8 0 15 3 16 8 0
4 2 23 4 42 2 19 6 204 9 410 6 351 12 516 21 529 1 3 6 31 9 61 4 30 12 79
17 108 6 29 8 60 5 68 -3 8 1 14 10 14 11 0 13 -6 9 -19 -3 -11 -8 -52 -10
-93 -4 -85 -14 -169 -21 -180 -5 -7 -9 -137 -20 -543 -3 -121 -6 -254 -7 -295
-1 -41 -6 -81 -10 -88 -8 -12 18 -30 28 -20 7 7 13 184 20 528 6 306 11 422
22 463 3 12 7 69 9 127 3 101 8 159 21 209 4 17 2 22 -6 17 -26 -16 -8 42 28
92 46 64 54 54 41 -50 -4 -39 -8 -133 -8 -209 0 -76 -3 -142 -5 -146 -9 -14
-19 -155 -23 -308 -1 -82 -6 -279 -10 -437 -6 -256 -5 -288 8 -288 9 0 18 7
22 15 7 19 26 19 26 0 0 -15 20 -22 20 -7 1 4 3 149 5 322 5 394 14 660 22
674 4 5 8 95 9 200 1 105 5 207 9 226 3 19 12 69 21 110 16 82 24 186 16 195
-3 3 -18 -18 -34 -46 -16 -28 -32 -49 -35 -46 -5 5 15 48 26 57 15 12 29 60
25 81 l-5 24 14 -24 c12 -20 15 -21 20 -7 4 11 3 15 -4 11 -7 -5 -9 5 -6 27 2
18 2 25 0 16 -5 -19 -23 -25 -23 -7 0 6 4 18 9 28 7 12 3 40 -14 92 -18 55
-23 64 -20 34 4 -30 3 -35 -4 -20 -12 25 -12 1 -1 -35 l8 -25 1 25 c2 21 4 19
16 -13 11 -32 11 -44 0 -70 -7 -18 -10 -37 -8 -44 5 -13 -27 -67 -35 -59 -2 3
3 17 12 30 19 31 21 48 1 23 -13 -18 -14 -18 -24 2 -15 28 -14 38 2 16 10 -13
16 -15 22 -6 4 7 -1 20 -13 31 -19 18 -20 18 -36 -43 -9 -34 -15 -77 -13 -94
3 -18 0 -33 -5 -33 -5 0 -4 -9 3 -21 16 -31 -2 -41 -31 -17 -14 12 -18 19 -9
15 13 -4 17 2 18 31 0 20 14 89 31 152 17 63 33 126 36 140 3 14 9 41 14 60
11 44 13 84 11 185 l-1 80 -22 -37 c-17 -30 -26 -36 -43 -32 -13 3 -27 -1 -34
-10 -8 -10 -9 -16 -3 -16 6 0 12 6 15 13 2 6 7 9 11 6 3 -3 -4 -17 -17 -31
-13 -14 -21 -30 -19 -36 2 -7 -3 -10 -12 -6 -11 4 -16 0 -16 -12 -1 -23 -23
-54 -38 -54 -6 0 -18 10 -26 22 l-16 22 0 -21 c0 -12 -6 -26 -13 -30 -7 -4
-18 -24 -23 -43 -5 -19 -16 -35 -23 -35 -16 0 -41 -34 -41 -57 0 -12 -8 -18
-24 -18 -20 0 -23 -4 -18 -22 3 -14 2 -19 -6 -14 -7 4 -12 3 -12 -3 0 -6 -11
-13 -25 -17 -14 -3 -30 -15 -36 -25 -5 -11 -16 -19 -24 -19 -7 0 -16 -6 -18
-12 -4 -10 -6 -10 -6 -1 -1 7 -8 10 -18 6 -11 -4 -14 -3 -9 5 4 7 3 12 -3 12
-5 0 -13 -5 -16 -10 -4 -6 -12 -4 -21 5 -20 19 -34 19 -34 -1 0 -8 -4 -13 -9
-9 -5 3 -12 -3 -14 -12 -4 -14 -5 -13 -6 4 0 12 -6 25 -13 29 -8 5 -9 0 -6
-14 4 -12 2 -22 -3 -22 -5 0 -9 10 -9 23 0 21 -1 21 -25 -7 -14 -16 -25 -24
-25 -18 0 7 -6 12 -13 12 -8 0 -24 9 -37 20 -13 11 -27 20 -33 20 -15 0 -47
41 -47 62 0 10 -7 18 -15 18 -8 0 -17 11 -21 25 -3 14 -9 25 -13 25 -6 0 -24
39 -36 78 -3 12 -11 22 -16 22 -5 0 -9 12 -9 28 0 26 -20 70 -20 45 0 -7 -7
-10 -15 -7 -8 4 -15 15 -15 26 0 11 -5 18 -12 15 -7 -2 -23 7 -36 20 -12 13
-27 21 -34 17 -7 -5 -9 1 -5 18 5 20 3 25 -10 24 -13 -1 -22 13 -33 48 -9 28
-22 52 -28 54 -7 2 -10 7 -7 11 2 5 1 21 -4 37 -9 31 2 74 18 74 5 0 17 -18
27 -40 20 -46 25 -45 31 7 2 20 6 39 9 42 2 2 -6 15 -18 28 -19 20 -19 23 -4
23 14 0 13 4 -8 25 -14 14 -31 22 -40 19 -9 -3 -20 3 -28 15 -7 12 -18 21 -25
21 -18 0 -26 37 -12 61 10 19 9 25 -6 35 -15 11 -16 16 -4 30 17 20 22 51 9
59 -17 10 -11 35 8 35 16 1 16 1 0 11 -10 5 -18 19 -18 29 0 11 -4 20 -10 20
-5 0 -10 9 -10 21 0 13 4 18 13 13 10 -6 10 -4 0 7 -7 7 -13 22 -12 34 0 15 2
16 7 5 4 -8 16 -16 27 -17 11 -2 53 -8 94 -14 76 -11 156 -5 181 13 12 8 12 9
-2 4 -43 -13 -117 -18 -134 -7 -18 10 -18 11 1 9 11 -1 43 0 70 2 43 2 46 3
20 9 -20 4 -26 9 -17 14 6 5 12 5 12 1 0 -3 6 -2 13 4 6 5 40 16 75 22 34 7
62 16 62 21 0 5 -12 4 -26 -1 -37 -14 -61 -13 -46 2 7 7 12 22 12 35 0 13 3
23 6 23 16 0 74 -43 68 -51 -3 -5 4 -9 16 -9 35 0 -74 -103 -138 -130 -41 -18
-50 -25 -39 -32 10 -5 35 0 71 17 30 14 58 25 61 25 4 0 5 -15 2 -32 -3 -20 1
-39 9 -48 11 -13 10 -22 -7 -59 -49 -111 -29 -161 64 -161 50 0 51 -1 27 -15
-14 -8 -32 -17 -40 -21 -8 -4 -21 -16 -28 -26 -14 -19 -47 -24 -57 -8 -25 40
-121 -45 -148 -132 -9 -25 12 -88 28 -88 8 0 15 8 15 18 0 13 8 17 37 17 33 0
38 -4 53 -40 12 -28 14 -44 7 -53 -7 -9 -6 -21 4 -38 7 -15 14 -44 14 -65 0
-27 3 -38 12 -35 7 3 16 -1 20 -8 5 -7 16 -15 25 -19 14 -5 19 1 24 30 4 22 2
44 -5 56 -18 28 -7 32 50 19 28 -7 60 -12 72 -11 21 0 21 1 -3 12 -68 32 -26
56 105 61 68 2 100 -1 112 -10 10 -7 26 -14 36 -14 31 0 81 46 107 99 18 37
34 54 59 64 l34 14 -32 14 c-17 8 -30 18 -28 24 6 18 32 16 55 -5 14 -13 22
-16 22 -8 1 8 5 7 14 -4 18 -24 26 -12 20 26 -4 24 -3 27 5 16 9 -13 11 -13
11 3 0 40 -100 161 -115 137 -4 -6 0 -19 9 -29 9 -10 16 -24 16 -32 0 -13 -13
-12 -84 6 -45 11 -91 26 -100 34 -9 8 -19 11 -22 8 -3 -3 -17 -2 -30 3 -16 6
-24 6 -24 -1 0 -6 -10 -8 -22 -4 -13 3 -18 3 -13 -2 12 -10 19 -31 18 -61 -1
-13 1 -21 4 -18 3 3 25 -6 49 -19 23 -13 60 -27 81 -30 60 -10 76 -16 67 -25
-5 -5 -40 -2 -79 6 -61 11 -77 11 -124 -2 -30 -9 -82 -14 -120 -13 -36 2 -85
-1 -108 -5 -30 -5 -43 -4 -43 4 0 6 4 9 9 6 5 -3 14 0 20 8 7 8 24 17 39 21
32 8 82 52 83 74 0 12 3 10 9 -4 8 -19 9 -19 9 2 1 29 -9 54 -20 47 -5 -3 -9
1 -9 8 0 8 -5 6 -11 -4 -5 -10 -18 -18 -27 -18 -15 0 -15 2 -2 10 12 8 10 10
-10 11 -17 1 -19 3 -7 6 9 2 17 11 17 19 0 10 14 14 53 14 32 0 67 7 89 18 22
12 48 17 67 14 29 -4 31 -6 16 -21 -24 -27 -18 -29 31 -13 55 18 79 50 70 93
-11 56 -76 149 -76 109 0 -17 -23 -11 -49 14 -23 21 -32 22 -76 16 -44 -6 -39
-15 7 -12 9 1 30 -15 47 -35 24 -28 40 -38 73 -42 49 -7 75 -40 57 -74 -8 -15
-16 -17 -42 -11 -52 13 -138 5 -177 -16 -32 -17 -89 23 -106 74 -6 18 11 62
32 81 16 14 25 70 13 82 -5 5 -10 47 -10 94 -1 93 -23 147 -76 189 -22 17 -27
29 -26 61 1 24 -2 37 -8 33 -6 -3 -15 8 -22 25 -12 31 -27 41 -27 19 0 -8 -7
-5 -15 6 -15 19 -15 19 -15 -5 l-1 -24 -15 28 c-8 15 -19 25 -25 22 -5 -4 -6
-11 -3 -17 4 -6 0 -6 -13 1 -11 6 -22 8 -25 6 -12 -12 -97 -22 -107 -12 -5 5
-18 6 -28 2 -10 -4 -29 -9 -42 -11 -19 -2 -22 1 -17 19 3 12 6 29 6 38 0 12 7
15 25 11 33 -6 55 14 55 49 0 16 5 29 10 29 6 0 10 5 10 11 0 5 -4 7 -10 4
-17 -11 -11 26 9 54 11 15 21 40 23 56 2 17 8 29 16 27 15 -3 16 15 2 20 -22
7 19 78 56 95 25 13 34 22 31 35 -4 16 2 18 46 18 34 0 47 3 38 9 -9 6 2 11
36 16 50 6 94 24 63 25 -30 1 13 20 45 20 17 0 48 7 70 14 22 8 41 11 43 7 1
-4 18 -5 37 -3 47 6 203 -24 253 -48 23 -11 46 -20 52 -20 16 0 150 -130 150
-145 0 -7 7 -27 17 -45 9 -19 18 -50 19 -69 2 -20 3 -36 4 -36 1 0 3 -13 5
-30 2 -16 8 -48 13 -70 17 -69 50 -248 57 -305 3 -30 17 -98 30 -150 l24 -95
-5 68 c-3 42 -1 67 6 67 5 0 10 5 10 10 0 6 -6 10 -14 10 -8 0 -16 8 -18 17
-3 18 11 137 30 253 36 213 36 313 2 385 -30 63 -87 135 -107 135 -13 0 -13 3
-3 15 8 9 8 15 2 15 -6 0 -13 9 -17 19 -9 31 -86 107 -140 139 -27 16 -93 56
-146 89 -53 32 -116 65 -140 72 -24 7 -57 16 -74 21 -36 11 -259 12 -271 1z
m-151 -422 c-12 -12 -26 -18 -33 -14 -8 5 -4 11 12 20 36 20 45 17 21 -6z m57
-548 c0 -5 -6 -11 -12 -14 -7 -2 2 -11 20 -21 17 -9 32 -19 32 -21 0 -3 -28
-3 -62 0 -58 4 -60 4 -19 -5 44 -10 76 -28 66 -39 -9 -8 -137 -1 -155 9 -12 7
-10 11 10 19 41 16 -4 13 -66 -5 -43 -12 -58 -13 -69 -4 -22 18 -18 37 7 43
12 4 19 10 14 14 -10 10 108 30 182 32 28 0 52 -3 52 -8z m100 -136 c16 -19 1
-19 -24 0 -16 12 -17 15 -4 15 8 0 21 -7 28 -15z m-222 -57 c14 -16 13 -18 -4
-18 -25 0 -44 18 -44 41 0 23 24 31 29 10 1 -9 10 -24 19 -33z m-318 -189 c0
-71 -15 -95 -22 -35 -5 48 2 117 13 110 5 -3 9 -36 9 -75z m577 -122 c9 -7 3
-15 -23 -33 -52 -35 -77 -7 -34 36 20 20 29 19 57 -3z m-432 -276 c3 -5 1 -12
-5 -16 -5 -3 -10 1 -10 9 0 18 6 21 15 7z m825 -44 c0 -14 -52 -61 -70 -64
-40 -6 -76 -17 -81 -24 -3 -5 -16 -9 -30 -9 -102 -2 -149 1 -149 9 0 5 -10 9
-22 10 -68 2 -88 6 -93 19 -8 21 1 29 42 38 41 8 44 9 142 17 35 3 65 8 67 10
9 9 194 4 194 -6z m-620 -17 c0 -5 -2 -10 -4 -10 -2 0 -12 -3 -20 -6 -12 -5
-15 -2 -10 10 7 17 34 22 34 6z m155 -208 c-3 -3 -11 0 -18 7 -9 10 -8 11 6 5
10 -3 15 -9 12 -12z m780 -66 c27 11 -26 -128 -59 -155 -9 -7 -13 -18 -10 -23
7 -11 -35 -98 -47 -98 -5 0 -6 -6 -3 -13 2 -7 -5 -23 -16 -35 -11 -12 -17 -22
-12 -22 5 0 2 -16 -6 -35 -9 -19 -22 -35 -30 -35 -7 0 -10 -4 -7 -10 8 -13
-14 -52 -26 -45 -5 4 -9 -1 -9 -9 0 -16 -38 -56 -53 -56 -5 0 -3 8 4 18 13 15
12 16 -3 3 -10 -7 -16 -17 -13 -21 11 -18 -65 -65 -123 -75 -23 -4 -40 -11
-36 -16 3 -5 -5 -9 -18 -10 -13 0 -17 -3 -10 -6 22 -9 12 -22 -23 -29 -19 -3
-32 -10 -29 -15 8 -14 -20 -11 -51 5 -17 9 -22 16 -13 19 8 3 5 6 -7 6 -15 1
-17 3 -6 10 11 7 9 10 -8 16 -12 3 -19 10 -16 15 3 4 -2 11 -11 14 -8 3 -12
10 -9 16 3 5 1 10 -5 10 -6 0 -8 4 -5 10 4 6 -1 7 -11 3 -13 -5 -15 -3 -9 7 5
8 4 11 -2 7 -11 -7 -103 29 -103 39 0 3 5 2 12 -2 7 -4 8 -3 4 5 -4 6 -12 9
-17 6 -5 -4 -17 -2 -26 4 -16 9 -16 11 7 20 27 11 20 14 -24 11 -24 -1 -26 0
-15 12 14 16 49 21 49 8 0 -9 90 -32 126 -32 13 0 29 -7 35 -14 6 -8 21 -14
33 -13 17 0 15 3 -11 16 -18 9 -33 19 -33 22 0 13 50 28 77 24 41 -7 75 -6
102 3 19 6 22 4 16 -7 -7 -11 -6 -12 6 -2 8 7 28 10 43 7 20 -3 32 1 42 13 16
22 19 1 4 -27 -8 -16 -8 -18 5 -14 8 4 15 10 15 16 0 5 10 7 23 4 12 -3 17 -3
11 0 -7 3 -10 15 -7 27 4 21 4 22 -11 3 -15 -18 -16 -18 -16 -2 0 10 9 20 20
23 11 3 20 12 20 19 0 8 13 17 29 20 20 4 31 13 33 28 2 11 12 22 23 25 11 2
23 8 27 15 11 17 10 48 -2 41 -5 -3 -10 -15 -10 -26 0 -11 -5 -17 -10 -14 -7
4 -4 17 7 35 9 16 20 27 24 24 12 -7 27 28 23 52 -3 16 3 24 21 28 15 4 25 14
25 24 0 15 -2 15 -11 2 -9 -13 -10 -13 -6 0 4 17 29 21 39 5 4 -5 6 5 3 23 -2
19 2 38 11 46 8 8 14 18 14 23 0 5 8 20 17 33 15 21 18 22 21 8 2 -10 9 -15
17 -12z m-1187 -97 c-2 -6 -7 -10 -11 -10 -4 1 -19 -3 -33 -9 -18 -7 -23 -7
-18 1 4 8 -1 9 -17 4 -18 -5 -21 -4 -9 4 8 6 22 8 30 6 8 -2 22 0 30 5 20 13
33 13 28 -1z m-28 -49 c0 -5 -4 -10 -10 -10 -5 0 -10 5 -10 10 0 6 5 10 10 10
6 0 10 -4 10 -10z m-40 -10 c0 -5 -5 -10 -11 -10 -5 0 -7 5 -4 10 3 6 8 10 11
10 2 0 4 -4 4 -10z m-44 -15 c-1 -8 -5 -17 -8 -21 -5 -4 -4 16 1 34 3 9 9 -1
7 -13z m-86 -15 c0 -5 -2 -10 -4 -10 -3 0 -8 5 -11 10 -3 6 -1 10 4 10 6 0 11
-4 11 -10z m330 -20 c0 -5 -2 -10 -4 -10 -3 0 -8 5 -11 10 -3 6 -1 10 4 10 6
0 11 -4 11 -10z m-140 -14 c0 -3 -4 -8 -10 -11 -5 -3 -10 -1 -10 4 0 6 5 11
10 11 6 0 10 -2 10 -4z m1136 -105 c-14 -56 -23 -108 -20 -115 3 -8 1 -17 -5
-21 -23 -14 -28 7 -16 62 13 62 55 186 62 180 2 -2 -8 -50 -21 -106z m-952 27
c61 -127 65 -141 50 -169 l-13 -24 -1 28 c0 15 -9 47 -20 69 -11 23 -20 47
-20 52 -1 6 -9 29 -20 51 -18 38 -25 65 -16 65 2 0 20 -33 40 -72z m-94 17 c0
-5 -5 -3 -10 5 -5 8 -10 20 -10 25 0 6 5 3 10 -5 5 -8 10 -19 10 -25z m-105
15 c3 -5 1 -10 -4 -10 -6 0 -11 5 -11 10 0 6 2 10 4 10 3 0 8 -4 11 -10z
m-275 -10 c0 -5 -5 -10 -11 -10 -5 0 -7 5 -4 10 3 6 8 10 11 10 2 0 4 -4 4
-10z m-40 -20 c0 -5 -5 -10 -11 -10 -5 0 -7 5 -4 10 3 6 8 10 11 10 2 0 4 -4
4 -10z m437 -12 c2 -17 0 -19 -7 -8 -5 8 -6 18 -4 22 8 12 10 10 11 -14z
m-491 3 c-4 -5 0 -11 6 -14 7 -2 9 -8 5 -13 -9 -10 -28 16 -21 28 3 4 7 8 10
8 3 0 3 -4 0 -9z m154 -1 c0 -5 -5 -10 -11 -10 -5 0 -7 5 -4 10 3 6 8 10 11
10 2 0 4 -4 4 -10z m145 -10 c3 -5 1 -10 -4 -10 -6 0 -11 5 -11 10 0 6 2 10 4
10 3 0 8 -4 11 -10z m185 -30 c7 -16 16 -30 21 -30 5 0 9 -6 9 -14 0 -7 7 -19
15 -26 8 -7 15 -17 15 -23 0 -6 -12 5 -26 24 -31 41 -69 113 -56 105 5 -3 15
-19 22 -36z m-220 21 c0 -6 -4 -13 -10 -16 -5 -3 -10 1 -10 9 0 9 5 16 10 16
6 0 10 -4 10 -9z m-140 -21 c0 -5 -5 -10 -11 -10 -5 0 -7 5 -4 10 3 6 8 10 11
10 2 0 4 -4 4 -10z m296 -17 c-10 -10 -19 5 -10 18 6 11 8 11 12 0 2 -7 1 -15
-2 -18z m1170 -10 c-2 -30 -24 -78 -33 -70 -2 3 3 17 12 31 16 24 16 26 1 20
-18 -7 -21 8 -5 37 13 26 27 16 25 -18z m-1072 -68 c17 -21 25 -36 18 -31 -7
4 -26 26 -42 47 -16 23 -30 34 -32 27 -3 -7 -5 2 -5 21 l0 33 15 -28 c8 -16
29 -47 46 -69z m1109 55 c-31 -56 -38 -67 -52 -84 -29 -35 -21 -5 12 41 19 26
37 57 41 67 3 10 9 16 12 13 3 -3 -3 -20 -13 -37z m-1363 10 c0 -5 -4 -10 -10
-10 -5 0 -10 5 -10 10 0 6 5 10 10 10 6 0 10 -4 10 -10z m-270 -10 c0 -5 -4
-10 -10 -10 -5 0 -10 5 -10 10 0 6 5 10 10 10 6 0 10 -4 10 -10z m433 -5 c-3
-9 -8 -14 -10 -11 -3 3 -2 9 2 15 9 16 15 13 8 -4z m-628 -43 c-3 -3 -11 0
-18 7 -9 10 -8 11 6 5 10 -3 15 -9 12 -12z m475 8 c0 -5 -4 -10 -10 -10 -5 0
-10 5 -10 10 0 6 5 10 10 10 6 0 10 -4 10 -10z m176 -19 c1 -30 12 -120 21
-170 4 -22 2 -32 -4 -28 -11 7 -29 90 -38 173 -5 38 -3 51 7 51 7 0 13 -12 14
-26z m-586 15 c0 -3 -4 -8 -10 -11 -5 -3 -10 -1 -10 4 0 6 5 11 10 11 6 0 10
-2 10 -4z m320 -6 c0 -5 -2 -10 -4 -10 -3 0 -8 5 -11 10 -3 6 -1 10 4 10 6 0
11 -4 11 -10z m550 6 c0 -11 -19 -15 -25 -6 -3 5 1 10 9 10 9 0 16 -2 16 -4z
m894 -121 c-34 -168 -47 -314 -34 -380 6 -27 2 -91 -15 -235 -3 -25 -7 -162
-10 -304 -3 -142 -7 -261 -10 -264 -15 -16 -19 27 -17 191 3 242 11 401 22
462 6 28 9 115 8 195 -1 80 2 161 5 180 17 86 19 101 13 126 -7 26 -10 23 -60
-52 -54 -81 -86 -116 -86 -95 0 6 5 11 11 11 6 0 8 9 4 21 -5 15 -4 19 4 15 7
-5 11 3 11 21 0 17 3 23 8 16 10 -15 21 -3 76 80 29 44 41 55 48 45 7 -10 8
-8 4 4 -5 16 31 94 39 86 2 -2 -8 -57 -21 -123z m-1644 111 c0 -3 -4 -8 -10
-11 -5 -3 -10 -1 -10 4 0 6 5 11 10 11 6 0 10 -2 10 -4z m130 0 c0 -3 -4 -8
-10 -11 -5 -3 -10 -1 -10 4 0 6 5 11 10 11 6 0 10 -2 10 -4z m250 -11 c0 -8
-4 -15 -10 -15 -5 0 -10 7 -10 15 0 8 5 15 10 15 6 0 10 -7 10 -15z m104 -1
c3 -8 2 -12 -4 -9 -6 3 -10 10 -10 16 0 14 7 11 14 -7z m-64 -4 c0 -5 -5 -10
-11 -10 -5 0 -7 5 -4 10 3 6 8 10 11 10 2 0 4 -4 4 -10z m135 -48 c-3 -3 -6
-3 -7 -1 -2 2 -14 18 -28 34 l-25 30 32 -29 c18 -16 31 -32 28 -34z m340 40
c-3 -3 -11 0 -18 7 -9 10 -8 11 6 5 10 -3 15 -9 12 -12z m-555 -2 c0 -5 -4
-10 -10 -10 -5 0 -10 5 -10 10 0 6 5 10 10 10 6 0 10 -4 10 -10z m-50 -10 c0
-5 -4 -10 -10 -10 -5 0 -10 5 -10 10 0 6 5 10 10 10 6 0 10 -4 10 -10z m418
-15 c6 -14 10 -25 8 -25 -2 0 -11 11 -20 25 -9 14 -13 25 -8 25 5 0 14 -11 20
-25z m-918 5 c0 -5 -5 -10 -11 -10 -5 0 -7 5 -4 10 3 6 8 10 11 10 2 0 4 -4 4
-10z m420 0 c0 -5 -4 -10 -10 -10 -5 0 -10 5 -10 10 0 6 5 10 10 10 6 0 10 -4
10 -10z m307 -2 c11 -14 14 -52 4 -42 -6 5 -7 9 -10 35 0 5 -5 7 -11 4 -5 -3
-10 -1 -10 4 0 15 15 14 27 -1z m1057 -53 c-50 -74 -62 -83 -56 -45 2 16 8 27
12 25 5 -3 23 15 40 40 18 26 34 44 37 41 3 -3 -11 -31 -33 -61z m-1897 40 c0
-8 -4 -12 -9 -9 -5 3 -6 10 -3 15 9 13 12 11 12 -6z m483 5 c0 -5 -5 -10 -11
-10 -5 0 -7 5 -4 10 3 6 8 10 11 10 2 0 4 -4 4 -10z m267 -32 c3 -47 -11 -41
-22 10 -5 23 -3 32 7 32 8 0 14 -15 15 -42z m246 24 c3 7 4 3 4 -9 -1 -21 -2
-21 -19 -6 -10 9 -18 21 -18 27 0 6 7 3 14 -7 10 -13 15 -15 19 -5z m-683 -2
c0 -5 -4 -10 -10 -10 -5 0 -10 5 -10 10 0 6 5 10 10 10 6 0 10 -4 10 -10z
m640 -32 c0 -17 4 -27 10 -23 6 3 10 -5 10 -19 0 -20 -4 -24 -17 -19 -13 5
-14 8 -4 11 10 3 7 10 -10 23 -13 10 -18 19 -11 19 9 0 10 5 2 19 -14 26 -13
31 5 25 9 -4 15 -19 15 -36z m-290 22 c0 -5 -4 -10 -10 -10 -5 0 -10 5 -10 10
0 6 5 10 10 10 6 0 10 -4 10 -10z m233 -10 c3 6 4 5 3 -2 -2 -7 4 -22 13 -32
13 -16 13 -18 1 -11 -25 14 -50 38 -50 48 0 5 6 4 14 -2 10 -8 16 -9 19 -1z
m199 -20 c20 0 40 -4 43 -10 10 -15 -40 -12 -85 6 -22 9 -40 20 -40 26 0 5 10
2 22 -6 12 -9 39 -16 60 -16z m778 21 c0 -6 -4 -13 -10 -16 -5 -3 -10 1 -10 9
0 9 5 16 10 16 6 0 10 -4 10 -9z m-120 -20 c-15 -29 -60 -61 -84 -60 -14 0
-16 2 -6 6 8 3 25 15 38 26 12 11 22 16 22 12 0 -5 7 1 16 13 19 27 28 29 14
3z m-1440 -1 c0 -5 -4 -10 -10 -10 -5 0 -10 5 -10 10 0 6 5 10 10 10 6 0 10
-4 10 -10z m400 -11 c0 -5 -4 -9 -10 -9 -5 0 -10 7 -10 16 0 8 5 12 10 9 6 -3
10 -10 10 -16z m-450 1 c0 -5 -4 -10 -10 -10 -5 0 -10 5 -10 10 0 6 5 10 10
10 6 0 10 -4 10 -10z m583 -15 c-3 -9 -1 -21 5 -28 5 -6 12 -40 16 -75 3 -34
8 -75 12 -90 4 -20 3 -23 -5 -12 -12 20 -51 212 -45 222 9 14 23 -2 17 -17z
m213 5 c13 0 26 -5 29 -10 10 -16 -47 -1 -63 16 -7 9 -8 10 0 4 7 -6 22 -10
34 -10z m-81 -98 c-3 -3 -13 2 -23 11 -25 23 -30 21 -26 -9 1 -14 -1 -23 -4
-19 -4 3 -7 14 -7 23 0 9 -6 16 -14 14 -9 -2 -12 4 -8 17 3 13 -4 32 -16 48
-12 16 6 4 41 -26 34 -30 60 -56 57 -59z m-985 88 c0 -5 -5 -10 -11 -10 -5 0
-7 5 -4 10 3 6 8 10 11 10 2 0 4 -4 4 -10z m60 0 c0 -5 -5 -10 -11 -10 -5 0
-7 5 -4 10 3 6 8 10 11 10 2 0 4 -4 4 -10z m350 -4 c0 -3 -4 -8 -10 -11 -5 -3
-10 -1 -10 4 0 6 5 11 10 11 6 0 10 -2 10 -4z m770 -10 c-37 -14 -54 -11 -30
4 8 6 26 9 40 9 22 0 21 -2 -10 -13z m60 -1 c0 -9 -12 -18 -30 -22 -37 -7 -44
-17 -27 -35 7 -7 18 -25 24 -40 10 -23 10 -28 0 -28 -7 0 -19 16 -27 35 -7 19
-19 36 -27 39 -25 10 -13 24 28 31 22 4 43 13 46 21 7 18 13 18 13 -1z m-880
-5 c0 -5 -5 -10 -11 -10 -5 0 -7 5 -4 10 3 6 8 10 11 10 2 0 4 -4 4 -10z m140
6 c0 -3 -4 -8 -10 -11 -5 -3 -10 -1 -10 4 0 6 5 11 10 11 6 0 10 -2 10 -4z
m230 -17 c0 -5 -4 -9 -10 -9 -5 0 -10 7 -10 16 0 8 5 12 10 9 6 -3 10 -10 10
-16z m-710 1 c0 -5 -5 -10 -11 -10 -5 0 -7 5 -4 10 3 6 8 10 11 10 2 0 4 -4 4
-10z m250 0 c0 -5 -4 -10 -10 -10 -5 0 -10 5 -10 10 0 6 5 10 10 10 6 0 10 -4
10 -10z m180 0 c0 -5 -4 -10 -10 -10 -5 0 -10 5 -10 10 0 6 5 10 10 10 6 0 10
-4 10 -10z m819 -30 c10 -8 27 -39 74 -135 74 -150 80 -166 68 -178 -8 -8 -11
-8 -11 1 0 7 -18 51 -40 98 -22 47 -40 90 -40 95 0 5 -4 9 -10 9 -5 0 -15 18
-21 40 -7 21 -22 49 -35 61 -18 17 -20 24 -11 34 10 11 13 10 16 -3 2 -10 6
-19 10 -22z m505 18 c-10 -16 -15 -37 -15 -60 0 -10 -6 -18 -13 -18 -12 0 -46
-86 -46 -116 0 -8 -4 -23 -10 -34 -5 -11 -15 -29 -20 -40 -6 -12 -8 -25 -6
-29 3 -5 -1 -30 -9 -57 -8 -27 -17 -69 -20 -94 -4 -25 -9 -56 -11 -70 -3 -14
-7 -124 -9 -245 -4 -284 -3 -275 -14 -275 -5 0 -9 48 -9 108 0 221 -7 188 -12
-58 l-6 -255 -2 242 c-1 133 -5 248 -8 257 -4 11 -1 16 10 16 13 0 16 14 18
88 0 48 0 97 -1 110 -1 12 2 22 8 22 5 0 7 9 4 20 -3 11 0 26 6 34 8 9 8 17 2
20 -12 8 -31 -81 -31 -149 0 -30 -4 -56 -9 -59 -10 -7 -7 115 4 159 18 74 99
294 151 411 8 17 16 42 18 55 2 13 9 23 15 22 6 -2 11 2 11 9 0 6 3 9 6 5 3
-3 2 -12 -2 -19z m-1094 2 c0 -5 -4 -10 -10 -10 -5 0 -10 5 -10 10 0 6 5 10
10 10 6 0 10 -4 10 -10z m1237 -12 c-3 -8 -6 -5 -6 6 -1 11 2 17 5 13 3 -3 4
-12 1 -19z m-1507 8 c0 -3 -4 -8 -10 -11 -5 -3 -10 -1 -10 4 0 6 5 11 10 11 6
0 10 -2 10 -4z m167 -18 c-3 -8 -6 -5 -6 6 -1 11 2 17 5 13 3 -3 4 -12 1 -19z
m418 12 c3 -5 -1 -10 -9 -10 -9 0 -16 5 -16 10 0 6 4 10 9 10 6 0 13 -4 16
-10z m48 -7 c2 -10 8 -27 12 -38 6 -16 3 -15 -14 5 -21 26 -27 50 -12 50 5 0
11 -8 14 -17z m-1003 3 c0 -3 -4 -8 -10 -11 -5 -3 -10 -1 -10 4 0 6 5 11 10
11 6 0 10 -2 10 -4z m739 -58 c10 -56 9 -79 -4 -67 -2 3 -7 29 -10 58 -2 29
-7 57 -11 62 -3 5 -1 9 4 9 6 0 15 -28 21 -62z m314 45 c3 -10 13 -29 21 -43
8 -14 29 -56 47 -95 17 -38 40 -88 50 -111 20 -43 24 -64 11 -64 -9 0 -36 51
-53 103 -7 20 -17 37 -21 37 -4 0 -8 6 -8 14 0 8 -9 31 -20 53 -48 95 -58 123
-45 123 7 0 15 -8 18 -17z m85 -77 c20 -39 41 -87 48 -106 6 -19 22 -57 36
-85 15 -27 34 -68 43 -90 9 -22 21 -48 26 -57 16 -30 9 -34 -11 -8 -19 23 -40
63 -60 115 -4 11 -24 54 -43 95 -19 41 -38 86 -42 100 -4 14 -13 32 -19 40 -7
8 -20 33 -30 54 -31 69 11 22 52 -58z m57 68 c14 -15 25 -33 25 -40 0 -7 22
-56 50 -111 27 -54 50 -105 50 -113 0 -9 4 -20 9 -25 5 -6 13 -28 16 -50 9
-47 -5 -38 -24 15 -7 19 -18 46 -23 60 -6 14 -14 34 -18 45 -15 40 -54 121
-72 147 -10 14 -18 32 -18 40 0 8 -9 24 -20 36 -12 12 -16 22 -10 22 6 0 22
-12 35 -26z m-1095 6 c0 -5 -5 -10 -11 -10 -5 0 -7 5 -4 10 3 6 8 10 11 10 2
0 4 -4 4 -10z m220 6 c0 -3 -4 -8 -10 -11 -5 -3 -10 -1 -10 4 0 6 5 11 10 11
6 0 10 -2 10 -4z m370 -11 c0 -8 -4 -15 -10 -15 -5 0 -10 7 -10 15 0 8 5 15
10 15 6 0 10 -7 10 -15z m919 2 c-9 -7 -14 -18 -12 -24 3 -8 -3 -13 -14 -12
-10 0 -13 3 -5 6 6 2 9 9 6 15 -4 6 0 14 7 19 21 13 36 10 18 -4z m-1379 -1
c0 -3 -4 -8 -10 -11 -5 -3 -10 -1 -10 4 0 6 5 11 10 11 6 0 10 -2 10 -4z m180
-6 c0 -5 -4 -10 -10 -10 -5 0 -10 5 -10 10 0 6 5 10 10 10 6 0 10 -4 10 -10z
m227 -12 c-3 -8 -6 -5 -6 6 -1 11 2 17 5 13 3 -3 4 -12 1 -19z m-457 8 c0 -3
-4 -8 -10 -11 -5 -3 -10 -1 -10 4 0 6 5 11 10 11 6 0 10 -2 10 -4z m190 0 c0
-3 -4 -8 -10 -11 -5 -3 -10 -1 -10 4 0 6 5 11 10 11 6 0 10 -2 10 -4z m417
-28 c-1 -18 2 -50 6 -72 6 -28 5 -37 -4 -34 -6 2 -13 17 -14 33 -1 17 -5 46
-9 65 -5 26 -4 31 3 20 9 -13 11 -13 11 3 0 9 2 17 4 17 3 0 4 -15 3 -32z
m108 -82 c3 -34 7 -74 10 -91 l5 -30 -15 31 c-15 33 -35 139 -35 184 0 51 30
-30 35 -94z m-895 94 c0 -5 -5 -10 -11 -10 -5 0 -7 5 -4 10 3 6 8 10 11 10 2
0 4 -4 4 -10z m550 1 c0 -6 -4 -13 -10 -16 -5 -3 -10 1 -10 9 0 9 5 16 10 16
6 0 10 -4 10 -9z m-718 -23 c-7 -7 -12 -8 -12 -2 0 14 12 26 19 19 2 -3 -1
-11 -7 -17z m488 18 c0 -3 -4 -8 -10 -11 -5 -3 -10 -1 -10 4 0 6 5 11 10 11 6
0 10 -2 10 -4z m629 -17 c13 -11 21 -22 18 -25 -3 -3 -18 6 -34 20 -32 30 -19
35 16 5z m468 15 c-3 -3 -12 -4 -19 -1 -8 3 -5 6 6 6 11 1 17 -2 13 -5z
m-1467 -14 c0 -5 -5 -10 -11 -10 -5 0 -7 5 -4 10 3 6 8 10 11 10 2 0 4 -4 4
-10z m100 0 c0 -5 -5 -10 -11 -10 -5 0 -7 5 -4 10 3 6 8 10 11 10 2 0 4 -4 4
-10z m220 0 c0 -5 -5 -10 -11 -10 -5 0 -7 5 -4 10 3 6 8 10 11 10 2 0 4 -4 4
-10z m430 -5 c0 -8 -4 -15 -10 -15 -5 0 -10 7 -10 15 0 8 5 15 10 15 6 0 10
-7 10 -15z m-840 -5 c0 -5 -5 -10 -11 -10 -5 0 -7 5 -4 10 3 6 8 10 11 10 2 0
4 -4 4 -10z m560 6 c0 -3 -4 -8 -10 -11 -5 -3 -10 -1 -10 4 0 6 5 11 10 11 6
0 10 -2 10 -4z m230 -11 c0 -8 -4 -15 -10 -15 -5 0 -10 7 -10 15 0 8 5 15 10
15 6 0 10 -7 10 -15z m763 8 c-7 -2 -19 -2 -25 0 -7 3 -2 5 12 5 14 0 19 -2
13 -5z m-1413 -13 c0 -5 -5 -10 -11 -10 -5 0 -7 5 -4 10 3 6 8 10 11 10 2 0 4
-4 4 -10z m180 6 c0 -3 -4 -8 -10 -11 -5 -3 -10 -1 -10 4 0 6 5 11 10 11 6 0
10 -2 10 -4z m190 -6 c0 -5 -4 -10 -10 -10 -5 0 -10 5 -10 10 0 6 5 10 10 10
6 0 10 -4 10 -10z m222 -12 c-7 -7 -12 -8 -12 -2 0 6 3 14 7 17 3 4 9 5 12 2
2 -3 -1 -11 -7 -17z m380 -54 c-3 -15 2 -23 19 -27 13 -4 20 -9 16 -13 -4 -4
2 -17 12 -28 11 -12 29 -50 41 -86 12 -36 25 -74 30 -85 18 -39 41 -191 45
-295 3 -58 7 -163 10 -235 12 -290 16 -371 21 -398 4 -21 2 -27 -11 -27 -13 0
-16 6 -13 25 3 14 2 45 -3 69 -4 23 -10 101 -13 172 -12 295 -23 502 -31 559
-6 41 -25 127 -32 145 -4 8 -7 17 -8 20 -14 53 -38 110 -47 110 -3 0 -9 13
-13 29 -4 20 -11 28 -21 24 -9 -3 -14 2 -14 16 0 22 -26 81 -35 81 -3 0 -2
-12 1 -26 5 -19 4 -25 -5 -20 -6 4 -11 21 -11 38 l0 30 33 -29 c22 -19 32 -35
29 -49z m576 -21 c-15 -72 -37 -148 -58 -198 -9 -22 -23 -80 -19 -80 1 0 -3
-10 -10 -23 -8 -15 -12 -71 -11 -165 1 -239 9 -618 14 -684 5 -58 -4 -83 -18
-48 -5 13 -18 458 -20 691 -1 64 -4 81 -16 80 -8 -1 -16 7 -18 18 -2 11 0 16
7 12 6 -4 11 -2 11 3 0 6 -12 11 -26 11 -14 0 -23 4 -20 9 3 5 15 7 25 4 23
-6 37 13 15 21 -10 4 -13 2 -8 -6 4 -6 3 -8 -4 -5 -11 7 -11 16 2 57 7 24 11
35 34 90 5 14 21 61 35 105 14 44 29 89 33 99 5 13 4 17 -3 13 -7 -5 -9 0 -6
14 4 15 8 17 14 8 6 -11 9 -10 14 3 4 9 13 14 21 11 11 -4 13 2 8 28 -6 28 -4
32 7 22 11 -11 10 -26 -3 -90z m159 75 c-3 -8 -6 -5 -6 6 -1 11 2 17 5 13 3
-3 4 -12 1 -19z m-1907 2 c0 -5 -5 -10 -11 -10 -5 0 -7 5 -4 10 3 6 8 10 11
10 2 0 4 -4 4 -10z m520 0 c0 -5 -5 -10 -11 -10 -5 0 -7 5 -4 10 3 6 8 10 11
10 2 0 4 -4 4 -10z m226 -17 c-10 -10 -19 5 -10 18 6 11 8 11 12 0 2 -7 1 -15
-2 -18z m514 -27 c0 -5 -7 -3 -15 4 -8 7 -15 22 -15 34 1 20 2 20 15 -4 8 -14
14 -29 15 -34z m-1110 34 c0 -5 -5 -10 -11 -10 -5 0 -7 5 -4 10 3 6 8 10 11
10 2 0 4 -4 4 -10z m1065 0 c3 -5 2 -10 -4 -10 -5 0 -13 5 -16 10 -3 6 -2 10
4 10 5 0 13 -4 16 -10z m203 -49 c12 -26 33 -78 47 -114 13 -36 31 -82 41
-102 9 -20 14 -38 11 -41 -4 -4 -88 155 -93 176 -7 34 -21 71 -36 98 -21 39
-22 43 -5 36 6 -2 22 -26 35 -53z m-1460 22 c-8 -10 -14 -11 -16 -4 -2 6 -9 8
-15 4 -7 -4 -7 0 1 9 8 9 20 14 28 11 12 -4 12 -8 2 -20z m62 17 c0 -5 -5 -10
-11 -10 -5 0 -7 5 -4 10 3 6 8 10 11 10 2 0 4 -4 4 -10z m230 0 c0 -5 -4 -10
-10 -10 -5 0 -10 5 -10 10 0 6 5 10 10 10 6 0 10 -4 10 -10z m220 0 c0 -5 -4
-10 -10 -10 -5 0 -10 5 -10 10 0 6 5 10 10 10 6 0 10 -4 10 -10z m430 -5 c0
-8 -4 -15 -10 -15 -5 0 -10 7 -10 15 0 8 5 15 10 15 6 0 10 -7 10 -15z m-800
-5 c0 -5 -4 -10 -10 -10 -5 0 -10 5 -10 10 0 6 5 10 10 10 6 0 10 -4 10 -10z
m100 0 c0 -5 -5 -10 -11 -10 -5 0 -7 5 -4 10 3 6 8 10 11 10 2 0 4 -4 4 -10z
m220 0 c0 -5 -4 -10 -10 -10 -5 0 -10 5 -10 10 0 6 5 10 10 10 6 0 10 -4 10
-10z m620 -72 c5 -29 11 -93 14 -143 3 -49 9 -128 12 -175 5 -60 3 -82 -4 -75
-12 11 -19 75 -27 230 -8 152 -13 209 -20 230 -6 18 -5 18 5 3 6 -9 15 -41 20
-70z m900 31 c-7 -11 -14 -18 -17 -16 -3 3 -1 12 3 19 5 7 7 22 6 33 -2 18 -2
18 8 3 8 -13 8 -24 0 -39z m-1570 31 c0 -5 -4 -10 -10 -10 -5 0 -10 5 -10 10
0 6 5 10 10 10 6 0 10 -4 10 -10z m200 0 c0 -5 -4 -10 -10 -10 -5 0 -10 5 -10
10 0 6 5 10 10 10 6 0 10 -4 10 -10z m280 0 c0 -5 -4 -10 -10 -10 -5 0 -10 5
-10 10 0 6 5 10 10 10 6 0 10 -4 10 -10z m-865 -10 c-3 -5 -12 -10 -18 -10 -7
0 -6 4 3 10 19 12 23 12 15 0z m165 0 c0 -5 -5 -10 -11 -10 -5 0 -7 5 -4 10 3
6 8 10 11 10 2 0 4 -4 4 -10z m370 0 c0 -5 -4 -10 -10 -10 -5 0 -10 5 -10 10
0 6 5 10 10 10 6 0 10 -4 10 -10z m226 -17 c-10 -10 -19 5 -10 18 6 11 8 11
12 0 2 -7 1 -15 -2 -18z m54 17 c0 -5 -4 -10 -10 -10 -5 0 -10 5 -10 10 0 6 5
10 10 10 6 0 10 -4 10 -10z m430 0 c0 -5 -2 -10 -4 -10 -3 0 -8 5 -11 10 -3 6
-1 10 4 10 6 0 11 -4 11 -10z m660 -81 c-6 -24 -13 -57 -15 -73 -2 -15 -7 -38
-11 -50 -8 -24 -13 -53 -20 -113 -2 -23 -8 -52 -13 -65 -5 -13 -9 -133 -9
-268 -1 -135 -1 -261 -2 -280 0 -23 -3 -31 -10 -24 -10 10 -14 471 -5 574 4
43 17 111 29 155 3 11 12 51 21 88 8 38 19 77 25 87 5 10 11 29 11 42 2 21 2
21 6 -3 2 -14 -1 -45 -7 -70z m-940 66 c0 -8 -4 -15 -10 -15 -5 0 -10 7 -10
15 0 8 5 15 10 15 6 0 10 -7 10 -15z m-934 -22 c-10 -10 -19 5 -10 18 6 11 8
11 12 0 2 -7 1 -15 -2 -18z m84 17 c0 -5 -5 -10 -11 -10 -5 0 -7 5 -4 10 3 6
8 10 11 10 2 0 4 -4 4 -10z m370 0 c0 -5 -4 -10 -10 -10 -5 0 -10 5 -10 10 0
6 5 10 10 10 6 0 10 -4 10 -10z m426 -17 c-10 -10 -19 5 -10 18 6 11 8 11 12
0 2 -7 1 -15 -2 -18z m396 -12 c20 -36 17 -51 -6 -32 -11 9 -9 1 5 -28 10 -22
19 -47 19 -55 0 -8 5 -18 10 -21 6 -3 10 -16 10 -29 0 -12 4 -26 9 -31 14 -15
44 -182 47 -260 1 -38 5 -153 9 -255 3 -102 8 -207 11 -235 13 -159 16 -305 6
-305 -6 0 -11 12 -10 28 0 15 -2 56 -5 92 -13 136 -18 208 -22 305 -8 265 -18
434 -26 472 -5 24 -8 46 -7 50 2 10 -11 62 -22 88 -5 11 -16 47 -26 80 -9 33
-20 65 -24 70 -4 6 -10 23 -14 38 -4 15 -11 25 -16 22 -5 -3 -11 -2 -14 3 -2
4 4 9 15 9 10 1 19 -3 19 -9 0 -6 3 -9 6 -6 3 4 0 16 -6 28 -20 38 11 19 32
-19z m-1092 19 c0 -5 -4 -10 -10 -10 -5 0 -10 5 -10 10 0 6 5 10 10 10 6 0 10
-4 10 -10z m220 0 c0 -5 -4 -10 -10 -10 -5 0 -10 5 -10 10 0 6 5 10 10 10 6 0
10 -4 10 -10z m724 -7 c14 -45 76 -358 81 -405 2 -29 7 -118 10 -198 10 -278
16 -405 20 -461 3 -52 -6 -91 -18 -72 -3 5 -8 71 -11 148 -3 77 -8 190 -11
250 -3 61 -7 164 -10 230 -7 159 -13 219 -30 288 -49 190 -58 237 -45 237 5 0
11 -8 14 -17z m-1178 -20 c-10 -10 -19 5 -10 18 6 11 8 11 12 0 2 -7 1 -15 -2
-18z m404 17 c0 -5 -4 -10 -10 -10 -5 0 -10 5 -10 10 0 6 5 10 10 10 6 0 10
-4 10 -10z m480 0 c0 -5 -4 -10 -10 -10 -5 0 -10 5 -10 10 0 6 5 10 10 10 6 0
10 -4 10 -10z m-700 -10 c0 -5 -4 -10 -10 -10 -5 0 -10 5 -10 10 0 6 5 10 10
10 6 0 10 -4 10 -10z m362 -12 c-7 -7 -12 -8 -12 -2 0 14 12 26 19 19 2 -3 -1
-11 -7 -17z m288 12 c0 -5 -4 -10 -10 -10 -5 0 -10 5 -10 10 0 6 5 10 10 10 6
0 10 -4 10 -10z m200 -5 c0 -8 -4 -15 -10 -15 -5 0 -10 7 -10 15 0 8 5 15 10
15 6 0 10 -7 10 -15z m671 -18 c-8 -8 -11 -7 -11 4 0 9 3 19 7 23 4 4 9 2 11
-4 3 -7 -1 -17 -7 -23z m-1894 17 c-3 -4 -2 -16 4 -26 8 -15 8 -23 -2 -32 -9
-8 -11 -7 -6 5 3 9 1 22 -3 29 -9 14 -4 30 7 30 4 0 3 -3 0 -6z m148 -13 c-3
-6 -11 -11 -17 -11 -6 0 -6 6 2 15 14 17 26 13 15 -4z m825 9 c0 -5 -4 -10
-10 -10 -5 0 -10 5 -10 10 0 6 5 10 10 10 6 0 10 -4 10 -10z m196 -17 c-10
-10 -19 5 -10 18 6 11 8 11 12 0 2 -7 1 -15 -2 -18z m-931 7 c-3 -5 -11 -10
-16 -10 -6 0 -7 5 -4 10 3 6 11 10 16 10 6 0 7 -4 4 -10z m85 6 c0 -3 -4 -8
-10 -11 -5 -3 -10 -1 -10 4 0 6 5 11 10 11 6 0 10 -2 10 -4z m370 -6 c0 -5 -4
-10 -10 -10 -5 0 -10 5 -10 10 0 6 5 10 10 10 6 0 10 -4 10 -10z m-730 -29
c-5 -10 -6 -22 -2 -27 4 -5 1 -4 -7 2 -14 13 -6 58 10 49 5 -4 5 -13 -1 -24z
m230 20 c0 -12 -20 -25 -27 -18 -7 7 6 27 18 27 5 0 9 -4 9 -9z m450 -1 c0 -5
-4 -10 -10 -10 -5 0 -10 5 -10 10 0 6 5 10 10 10 6 0 10 -4 10 -10z m480 0 c0
-5 -4 -10 -10 -10 -5 0 -10 5 -10 10 0 6 5 10 10 10 6 0 10 -4 10 -10z m189
-27 c6 -21 13 -74 16 -118 4 -44 10 -116 14 -160 4 -44 7 -155 7 -247 -1 -93
1 -168 4 -168 3 0 6 -48 8 -107 1 -60 5 -120 8 -135 5 -23 -10 -47 -22 -36 -5
6 -12 173 -19 448 -3 113 -7 223 -9 245 -3 22 -7 90 -11 150 -3 61 -8 122 -11
138 -8 40 4 33 15 -10z m101 16 c0 -6 -4 -7 -10 -4 -5 3 -10 11 -10 16 0 6 5
7 10 4 6 -3 10 -11 10 -16z m-1048 -11 c-7 -7 -12 -8 -12 -2 0 14 12 26 19 19
2 -3 -1 -11 -7 -17z m228 12 c0 -5 -4 -10 -10 -10 -5 0 -10 5 -10 10 0 6 5 10
10 10 6 0 10 -4 10 -10z m480 0 c0 -5 -5 -10 -11 -10 -5 0 -7 5 -4 10 3 6 8
10 11 10 2 0 4 -4 4 -10z m-1036 -22 c-10 -13 -22 -25 -26 -28 -3 -3 -20 -23
-37 -44 -34 -42 -43 -76 -10 -37 11 13 22 21 25 19 3 -3 -6 -18 -20 -33 -16
-17 -26 -22 -26 -14 0 8 -11 1 -26 -16 -17 -21 -22 -23 -14 -8 5 12 15 25 20
28 6 3 10 14 10 23 0 13 -5 12 -20 -8 -11 -14 -20 -20 -21 -15 0 6 -2 20 -3
32 -1 12 1 28 6 35 7 10 8 10 7 -2 -4 -39 2 -45 21 -20 16 20 19 21 14 5 -4
-11 19 8 50 43 55 59 91 88 50 40z m33 -2 c-7 -14 -13 -23 -15 -21 -7 6 9 45
18 45 4 0 3 -11 -3 -24z m473 14 c0 -5 -5 -10 -11 -10 -5 0 -7 5 -4 10 3 6 8
10 11 10 2 0 4 -4 4 -10z m480 0 c0 -5 -5 -10 -11 -10 -5 0 -7 5 -4 10 3 6 8
10 11 10 2 0 4 -4 4 -10z m199 -17 c-1 -39 11 -223 16 -250 5 -20 -10 -41 -21
-30 -2 2 -7 72 -10 156 -5 109 -3 151 5 151 6 0 11 -12 10 -27z m655 0 c-4
-16 -11 -32 -15 -37 -5 -6 -9 -17 -9 -26 0 -16 -78 -221 -79 -208 -1 3 -4 14
-8 24 -4 12 -3 15 5 10 7 -4 14 4 18 21 4 15 10 33 14 38 3 6 12 30 19 55 7
25 19 61 26 80 7 19 16 43 19 53 9 28 17 20 10 -10z m-1739 7 c-3 -5 -11 -10
-16 -10 -6 0 -7 5 -4 10 3 6 11 10 16 10 6 0 7 -4 4 -10z m87 -12 c-7 -7 -12
-8 -12 -2 0 14 12 26 19 19 2 -3 -1 -11 -7 -17z m90 0 c-7 -7 -12 -8 -12 -2 0
14 12 26 19 19 2 -3 -1 -11 -7 -17z m849 -11 c-8 -8 -11 -7 -11 4 0 20 13 34
18 19 3 -7 -1 -17 -7 -23z m-471 13 c0 -5 -4 -10 -10 -10 -5 0 -10 5 -10 10 0
6 5 10 10 10 6 0 10 -4 10 -10z m743 -32 c36 -94 66 -282 72 -449 3 -90 7
-204 10 -254 15 -302 16 -355 6 -355 -6 0 -12 12 -12 28 -1 15 -3 43 -4 62 -2
19 -6 91 -9 160 -3 69 -8 172 -11 230 -3 58 -7 151 -9 207 -4 96 -48 349 -67
385 -11 22 -11 28 0 28 4 0 16 -19 24 -42z m-1253 22 c0 -5 -4 -10 -10 -10 -5
0 -10 5 -10 10 0 6 5 10 10 10 6 0 10 -4 10 -10z m460 0 c0 -5 -4 -10 -10 -10
-5 0 -10 5 -10 10 0 6 5 10 10 10 6 0 10 -4 10 -10z m480 0 c0 -5 -4 -10 -10
-10 -5 0 -10 5 -10 10 0 6 5 10 10 10 6 0 10 -4 10 -10z m-1195 -20 c-1 -11
-4 -22 -7 -25 -4 -5 -4 34 1 43 4 8 7 -1 6 -18z m345 10 c0 -5 -5 -10 -11 -10
-5 0 -7 5 -4 10 3 6 8 10 11 10 2 0 4 -4 4 -10z m312 -12 c-7 -7 -12 -8 -12
-2 0 14 12 26 19 19 2 -3 -1 -11 -7 -17z m-452 8 c0 -3 -4 -8 -10 -11 -5 -3
-10 -1 -10 4 0 6 5 11 10 11 6 0 10 -2 10 -4z m240 -6 c0 -5 -4 -10 -10 -10
-5 0 -10 5 -10 10 0 6 5 10 10 10 6 0 10 -4 10 -10z m647 -12 c-3 -8 -6 -5 -6
6 -1 11 2 17 5 13 3 -3 4 -12 1 -19z m560 -10 c11 -18 23 -44 27 -58 37 -131
49 -186 52 -250 6 -107 12 -294 14 -440 2 -83 5 -115 10 -95 5 19 8 -17 8 -97
0 -80 -4 -126 -10 -122 -5 3 -6 19 -3 35 4 18 3 29 -4 29 -6 0 -11 7 -11 15 0
8 5 15 10 15 6 0 10 7 10 16 0 8 -4 12 -10 9 -6 -4 -10 8 -11 27 0 18 -3 53
-5 78 -2 25 -6 108 -8 185 -11 280 -17 400 -21 420 -11 60 -34 144 -47 175
-17 40 -30 90 -24 90 2 0 13 -15 23 -32z m-1552 -28 c-1 -27 -4 -52 -8 -56 -4
-4 -7 15 -7 43 0 40 5 63 14 63 1 0 1 -22 1 -50z m31 23 c-10 -10 -19 5 -10
18 6 11 8 11 12 0 2 -7 1 -15 -2 -18z m164 17 c0 -5 -5 -10 -11 -10 -5 0 -7 5
-4 10 3 6 8 10 11 10 2 0 4 -4 4 -10z m100 1 c0 -6 -4 -13 -10 -16 -5 -3 -10
1 -10 9 0 9 5 16 10 16 6 0 10 -4 10 -9z m210 -1 c0 -5 -4 -10 -10 -10 -5 0
-10 5 -10 10 0 6 5 10 10 10 6 0 10 -4 10 -10z m437 -12 c-3 -8 -6 -5 -6 6 -1
11 2 17 5 13 3 -3 4 -12 1 -19z m-797 3 c0 -6 -4 -13 -10 -16 -5 -3 -10 1 -10
9 0 9 5 16 10 16 6 0 10 -4 10 -9z m1000 -6 c0 -8 -4 -15 -10 -15 -5 0 -10 7
-10 15 0 8 5 15 10 15 6 0 10 -7 10 -15z m-908 -17 c-7 -7 -12 -8 -12 -2 0 14
12 26 19 19 2 -3 -1 -11 -7 -17z m378 12 c0 -5 -5 -10 -11 -10 -5 0 -7 5 -4
10 3 6 8 10 11 10 2 0 4 -4 4 -10z m490 2 c0 -13 -12 -22 -22 -16 -10 6 -1 24
13 24 5 0 9 -4 9 -8z m244 -89 c15 -84 21 -167 31 -443 17 -449 17 -470 5
-470 -6 0 -11 10 -10 23 1 12 1 24 0 27 -5 10 -19 300 -25 540 -5 186 -20 376
-32 407 -4 10 -2 14 4 10 6 -4 18 -46 27 -94z m-1257 65 c-3 -8 -6 -5 -6 6 -1
11 2 17 5 13 3 -3 4 -12 1 -19z m103 2 c0 -5 -5 -10 -11 -10 -5 0 -7 5 -4 10
3 6 8 10 11 10 2 0 4 -4 4 -10z m370 6 c0 -3 -4 -8 -10 -11 -5 -3 -10 -1 -10
4 0 6 5 11 10 11 6 0 10 -2 10 -4z m490 -6 c0 -5 -4 -10 -10 -10 -5 0 -10 5
-10 10 0 6 5 10 10 10 6 0 10 -4 10 -10z m550 -11 c0 -6 -4 -7 -10 -4 -5 3
-10 11 -10 16 0 6 5 7 10 4 6 -3 10 -11 10 -16z m-1314 -16 c-10 -10 -19 5
-10 18 6 11 8 11 12 0 2 -7 1 -15 -2 -18z m214 18 c0 -6 -4 -13 -10 -16 -5 -3
-10 1 -10 9 0 9 5 16 10 16 6 0 10 -4 10 -9z m200 5 c0 -3 -4 -8 -10 -11 -5
-3 -10 -1 -10 4 0 6 5 11 10 11 6 0 10 -2 10 -4z m300 0 c0 -3 -4 -8 -10 -11
-5 -3 -10 -1 -10 4 0 6 5 11 10 11 6 0 10 -2 10 -4z m-930 -22 c0 -8 -4 -12
-10 -9 -5 3 -10 10 -10 16 0 5 5 9 10 9 6 0 10 -7 10 -16z m70 12 c0 -3 -4 -8
-10 -11 -5 -3 -10 -1 -10 4 0 6 5 11 10 11 6 0 10 -2 10 -4z m810 -6 c0 -5 -4
-10 -10 -10 -5 0 -10 5 -10 10 0 6 5 10 10 10 6 0 10 -4 10 -10z m198 -7 c-4
-22 -22 -20 -26 1 -2 10 3 16 13 16 10 0 15 -7 13 -17z m-916 -15 c-7 -7 -12
-8 -12 -2 0 14 12 26 19 19 2 -3 -1 -11 -7 -17z m868 7 c0 -8 -4 -15 -10 -15
-5 0 -10 7 -10 15 0 8 5 15 10 15 6 0 10 -7 10 -15z m546 -63 c10 -31 17 -61
16 -66 -2 -4 2 -13 7 -20 13 -16 9 -148 -5 -153 -7 -2 -11 22 -12 72 -2 70
-20 155 -43 197 -13 25 -11 38 5 32 7 -3 22 -31 32 -62z m-1619 26 c-3 -7 -5
-2 -5 12 0 14 2 19 5 13 2 -7 2 -19 0 -25z m163 22 c0 -5 -4 -10 -10 -10 -5 0
-10 5 -10 10 0 6 5 10 10 10 6 0 10 -4 10 -10z m860 0 c0 -5 -4 -10 -10 -10
-5 0 -10 5 -10 10 0 6 5 10 10 10 6 0 10 -4 10 -10z m-1206 -40 c-5 -5 -10 3
-11 18 -1 22 0 24 9 8 6 -10 6 -22 2 -26z m109 21 c-3 -10 0 -22 6 -25 12 -8
4 -36 -11 -36 -5 0 -6 10 -3 21 5 13 3 19 -3 15 -9 -5 -20 -25 -60 -103 -15
-29 -30 -65 -43 -108 -9 -28 -14 -34 -17 -21 -2 10 1 23 7 29 6 6 11 18 11 26
0 33 98 221 115 221 2 0 1 -8 -2 -19z m1047 9 c0 -5 -4 -10 -10 -10 -5 0 -10
5 -10 10 0 6 5 10 10 10 6 0 10 -4 10 -10z m-710 -10 c0 -5 -5 -10 -11 -10 -5
0 -7 5 -4 10 3 6 8 10 11 10 2 0 4 -4 4 -10z m210 0 c0 -5 -4 -10 -10 -10 -5
0 -10 5 -10 10 0 6 5 10 10 10 6 0 10 -4 10 -10z m140 0 c0 -5 -4 -10 -10 -10
-5 0 -10 5 -10 10 0 6 5 10 10 10 6 0 10 -4 10 -10z m310 1 c0 -6 -4 -13 -10
-16 -5 -3 -10 1 -10 9 0 9 5 16 10 16 6 0 10 -4 10 -9z m200 -36 c0 -26 -5
-45 -11 -45 -6 0 -9 8 -6 19 2 10 0 26 -5 35 -10 17 -3 36 13 36 5 0 9 -20 9
-45z m-1153 13 c-3 -8 -6 -5 -6 6 -1 11 2 17 5 13 3 -3 4 -12 1 -19z m445 0
c-7 -7 -12 -8 -12 -2 0 14 12 26 19 19 2 -3 -1 -11 -7 -17z m-550 -10 c-7 -7
-12 -8 -12 -2 0 14 12 26 19 19 2 -3 -1 -11 -7 -17z m348 12 c0 -5 -4 -10 -10
-10 -5 0 -10 5 -10 10 0 6 5 10 10 10 6 0 10 -4 10 -10z m660 6 c0 -3 -4 -8
-10 -11 -5 -3 -10 -1 -10 4 0 6 5 11 10 11 6 0 10 -2 10 -4z m200 -11 c0 -8
-4 -15 -10 -15 -5 0 -10 7 -10 15 0 8 5 15 10 15 6 0 10 -7 10 -15z m630 -6
c0 -6 -4 -7 -10 -4 -5 3 -10 11 -10 16 0 6 5 7 10 4 6 -3 10 -11 10 -16z
m-1680 -5 c0 -8 -5 -12 -10 -9 -6 4 -8 11 -5 16 9 14 15 11 15 -7z m135 7 c3
-5 1 -12 -5 -16 -5 -3 -10 1 -10 9 0 18 6 21 15 7z m865 -6 c0 -8 -4 -15 -10
-15 -5 0 -10 7 -10 15 0 8 5 15 10 15 6 0 10 -7 10 -15z m-1199 -18 c-10 -9
-11 -8 -5 6 3 10 9 15 12 12 3 -3 0 -11 -7 -18z m1145 -4 c-10 -10 -19 5 -10
18 6 11 8 11 12 0 2 -7 1 -15 -2 -18z m-1175 -10 c-12 -20 -14 -14 -5 12 4 9
9 14 11 11 3 -2 0 -13 -6 -23z m679 17 c0 -5 -5 -10 -11 -10 -5 0 -7 5 -4 10
3 6 8 10 11 10 2 0 4 -4 4 -10z m-620 -8 c0 -5 -7 -17 -16 -28 -8 -10 -14 -14
-11 -9 2 6 7 18 10 28 7 17 17 23 17 9z m130 -8 c0 -8 -4 -12 -10 -9 -5 3 -10
10 -10 16 0 5 5 9 10 9 6 0 10 -7 10 -16z m940 6 c0 -5 -4 -10 -10 -10 -5 0
-10 5 -10 10 0 6 5 10 10 10 6 0 10 -4 10 -10z m-718 -22 c-7 -7 -12 -8 -12
-2 0 14 12 26 19 19 2 -3 -1 -11 -7 -17z m218 12 c0 -5 -4 -10 -10 -10 -5 0
-10 5 -10 10 0 6 5 10 10 10 6 0 10 -4 10 -10z m646 -17 c-10 -10 -19 5 -10
18 6 11 8 11 12 0 2 -7 1 -15 -2 -18z m614 12 c0 -8 -4 -15 -9 -15 -5 0 -11 7
-15 15 -3 9 0 15 9 15 8 0 15 -7 15 -15z m-1913 -22 c1 -22 -1 -24 -8 -10 -6
9 -7 22 -4 27 9 14 10 13 12 -17z m34 0 c-12 -20 -14 -14 -5 12 4 9 9 14 11
11 3 -2 0 -13 -6 -23z m94 -18 c-9 -20 -19 -34 -22 -31 -3 3 2 22 12 41 9 20
19 34 22 31 3 -3 -2 -22 -12 -41z m145 35 c0 -5 -5 -10 -11 -10 -5 0 -7 5 -4
10 3 6 8 10 11 10 2 0 4 -4 4 -10z m830 6 c0 -3 -4 -8 -10 -11 -5 -3 -10 -1
-10 4 0 6 5 11 10 11 6 0 10 -2 10 -4z m-710 -16 c0 -5 -4 -10 -10 -10 -5 0
-10 5 -10 10 0 6 5 10 10 10 6 0 10 -4 10 -10z m860 0 c0 -5 -4 -10 -10 -10
-5 0 -10 5 -10 10 0 6 5 10 10 10 6 0 10 -4 10 -10z m-50 -10 c0 -5 -4 -10
-10 -10 -5 0 -10 5 -10 10 0 6 5 10 10 10 6 0 10 -4 10 -10z m-1035 -9 c3 -5
1 -12 -5 -16 -5 -3 -10 1 -10 9 0 18 6 21 15 7z m65 -1 c0 -5 -4 -10 -10 -10
-5 0 -10 5 -10 10 0 6 5 10 10 10 6 0 10 -4 10 -10z m912 -12 c-7 -7 -12 -8
-12 -2 0 14 12 26 19 19 2 -3 -1 -11 -7 -17z m210 -10 c-15 -15 -26 -4 -18 18
5 13 9 15 18 6 9 -9 9 -15 0 -24z m-1327 -44 c-13 -32 -24 -54 -25 -48 0 15
42 116 46 111 2 -2 -7 -30 -21 -63z m617 44 c-7 -7 -12 -8 -12 -2 0 14 12 26
19 19 2 -3 -1 -11 -7 -17z m-630 -10 c-7 -7 -12 -8 -12 -2 0 14 12 26 19 19 2
-3 -1 -11 -7 -17z m278 12 c0 -5 -4 -10 -10 -10 -5 0 -10 5 -10 10 0 6 5 10
10 10 6 0 10 -4 10 -10z m150 0 c0 -5 -4 -10 -10 -10 -5 0 -10 5 -10 10 0 6 5
10 10 10 6 0 10 -4 10 -10z m660 0 c0 -5 -4 -10 -10 -10 -5 0 -10 5 -10 10 0
6 5 10 10 10 6 0 10 -4 10 -10z m210 0 c0 -5 -7 -10 -15 -10 -8 0 -15 5 -15
10 0 6 7 10 15 10 8 0 15 -4 15 -10z m-1116 -25 c-4 -8 -10 -13 -15 -10 -4 3
-6 12 -3 20 4 8 10 13 15 10 4 -3 6 -12 3 -20z m192 -2 c-10 -10 -19 5 -10 18
6 11 8 11 12 0 2 -7 1 -15 -2 -18z m205 4 c-10 -9 -11 -8 -5 6 3 10 9 15 12
12 3 -3 0 -11 -7 -18z m655 -4 c-10 -10 -19 5 -10 18 6 11 8 11 12 0 2 -7 1
-15 -2 -18z m694 16 c0 -5 -4 -7 -10 -4 -5 3 -10 1 -10 -6 0 -7 -3 -10 -6 -6
-8 7 4 27 17 27 5 0 9 -5 9 -11z m-1957 -14 c-3 -9 -8 -14 -10 -11 -3 3 -2 9
2 15 9 16 15 13 8 -4z m167 -2 c-1 -18 -18 -35 -24 -24 -4 6 -4 16 -1 21 7 12
25 13 25 3z m840 -3 c0 -5 -4 -10 -10 -10 -5 0 -10 5 -10 10 0 6 5 10 10 10 6
0 10 -4 10 -10z m210 0 c0 -5 -4 -10 -10 -10 -5 0 -10 5 -10 10 0 6 5 10 10
10 6 0 10 -4 10 -10z m210 -5 c0 -8 -7 -15 -15 -15 -16 0 -20 12 -8 23 11 12
23 8 23 -8z m-1317 -28 c-6 -12 -14 -31 -18 -42 -4 -11 -9 -15 -11 -9 -6 14
25 88 33 80 4 -3 2 -16 -4 -29z m677 23 c0 -5 -5 -10 -11 -10 -5 0 -7 5 -4 10
3 6 8 10 11 10 2 0 4 -4 4 -10z m170 0 c0 -5 -5 -10 -11 -10 -5 0 -7 5 -4 10
3 6 8 10 11 10 2 0 4 -4 4 -10z m210 0 c0 -5 -4 -10 -10 -10 -5 0 -10 5 -10
10 0 6 5 10 10 10 6 0 10 -4 10 -10z m206 -17 c-10 -10 -19 5 -10 18 6 11 8
11 12 0 2 -7 1 -15 -2 -18z m572 -20 c-5 -27 -11 -221 -14 -433 -2 -212 -8
-386 -13 -388 -14 -5 -19 428 -6 623 6 93 24 224 32 238 9 15 10 5 1 -40z
m-1937 10 c-8 -15 -10 -15 -11 -2 0 17 10 32 18 25 2 -3 -1 -13 -7 -23z m229
17 c0 -5 -5 -10 -11 -10 -5 0 -7 5 -4 10 3 6 8 10 11 10 2 0 4 -4 4 -10z m880
1 c0 -6 -4 -13 -10 -16 -5 -3 -10 1 -10 9 0 9 5 16 10 16 6 0 10 -4 10 -9z
m-1134 -27 c-4 -9 -9 -15 -11 -12 -3 3 -3 13 1 22 4 9 9 15 11 12 3 -3 3 -13
-1 -22z m200 -1 c-10 -10 -19 5 -10 18 6 11 8 11 12 0 2 -7 1 -15 -2 -18z
m1144 17 c0 -5 -4 -10 -10 -10 -5 0 -10 5 -10 10 0 6 5 10 10 10 6 0 10 -4 10
-10z m597 -12 c-3 -8 -6 -5 -6 6 -1 11 2 17 5 13 3 -3 4 -12 1 -19z m83 -7 c0
-14 -2 -14 -10 -1 -9 13 -10 13 -10 0 0 -13 -2 -13 -9 0 -6 8 -8 17 -5 22 8
12 34 -3 34 -21z m-1604 -8 c-10 -10 -19 5 -10 18 6 11 8 11 12 0 2 -7 1 -15
-2 -18z m214 17 c0 -5 -4 -10 -10 -10 -5 0 -10 5 -10 10 0 6 5 10 10 10 6 0
10 -4 10 -10z m650 0 c0 -5 -5 -10 -11 -10 -5 0 -7 5 -4 10 3 6 8 10 11 10 2
0 4 -4 4 -10z m210 -10 c0 -11 -4 -20 -10 -20 -5 0 -10 9 -10 20 0 11 5 20 10
20 6 0 10 -9 10 -20z m-1344 -17 c-10 -10 -19 5 -10 18 6 11 8 11 12 0 2 -7 1
-15 -2 -18z m1076 5 c-7 -7 -12 -8 -12 -2 0 14 12 26 19 19 2 -3 -1 -11 -7
-17z m218 3 c0 -6 -4 -13 -10 -16 -5 -3 -10 1 -10 9 0 9 5 16 10 16 6 0 10 -4
10 -9z m-1433 -23 c-3 -8 -6 -5 -6 6 -1 11 2 17 5 13 3 -3 4 -12 1 -19z m963
12 c0 -5 -4 -10 -10 -10 -5 0 -10 5 -10 10 0 6 5 10 10 10 6 0 10 -4 10 -10z
m210 0 c0 -5 -4 -10 -10 -10 -5 0 -10 5 -10 10 0 6 5 10 10 10 6 0 10 -4 10
-10z m210 1 c0 -6 -4 -13 -10 -16 -5 -3 -10 1 -10 9 0 9 5 16 10 16 6 0 10 -4
10 -9z m-1213 -23 c-3 -8 -6 -5 -6 6 -1 11 2 17 5 13 3 -3 4 -12 1 -19z m743
12 c0 -5 -4 -10 -10 -10 -5 0 -10 5 -10 10 0 6 5 10 10 10 6 0 10 -4 10 -10z
m210 0 c0 -5 -4 -10 -10 -10 -5 0 -10 5 -10 10 0 6 5 10 10 10 6 0 10 -4 10
-10z m206 -17 c-10 -10 -19 5 -10 18 6 11 8 11 12 0 2 -7 1 -15 -2 -18z
m-1347 -33 c0 -9 -4 -8 -9 5 -5 11 -9 27 -9 35 0 9 4 8 9 -5 5 -11 9 -27 9
-35z m1083 28 c-7 -7 -12 -8 -12 -2 0 14 12 26 19 19 2 -3 -1 -11 -7 -17z
m942 14 c3 -5 7 -132 11 -283 3 -151 8 -314 11 -364 4 -67 2 -87 -6 -79 -14
14 -17 67 -24 414 -4 146 -9 277 -12 293 -5 25 8 38 20 19z m133 -14 c-3 -8
-6 -5 -6 6 -1 11 2 17 5 13 3 -3 4 -12 1 -19z m-2126 -15 c-8 -15 -10 -15 -11
-2 0 17 10 32 18 25 2 -3 -1 -13 -7 -23z m106 5 c-3 -8 -6 -5 -6 6 -1 11 2 17
5 13 3 -3 4 -12 1 -19z m143 12 c0 -5 -4 -10 -10 -10 -5 0 -10 5 -10 10 0 6 5
10 10 10 6 0 10 -4 10 -10z m150 0 c0 -5 -5 -10 -11 -10 -5 0 -7 5 -4 10 3 6
8 10 11 10 2 0 4 -4 4 -10z m870 6 c0 -3 -4 -8 -10 -11 -5 -3 -10 -1 -10 4 0
6 5 11 10 11 6 0 10 -2 10 -4z m210 -11 c0 -8 -7 -15 -15 -15 -8 0 -15 7 -15
15 0 8 7 15 15 15 8 0 15 -7 15 -15z m-1419 -28 c-8 -8 -11 -7 -11 4 0 20 13
34 18 19 3 -7 -1 -17 -7 -23z m1149 23 c0 -5 -4 -10 -10 -10 -5 0 -10 5 -10
10 0 6 5 10 10 10 6 0 10 -4 10 -10z m-440 -10 c0 -5 -4 -10 -10 -10 -5 0 -10
5 -10 10 0 6 5 10 10 10 6 0 10 -4 10 -10z m180 0 c0 -5 -5 -10 -11 -10 -5 0
-7 5 -4 10 3 6 8 10 11 10 2 0 4 -4 4 -10z m210 1 c0 -6 -4 -13 -10 -16 -5 -3
-10 1 -10 9 0 9 5 16 10 16 6 0 10 -4 10 -9z m260 -1 c0 -5 -4 -10 -10 -10 -5
0 -10 5 -10 10 0 6 5 10 10 10 6 0 10 -4 10 -10z m544 -345 c4 -165 8 -320 9
-344 1 -28 -3 -46 -10 -48 -8 -3 -12 6 -12 24 1 15 -1 186 -3 378 -3 193 -2
337 2 320 5 -16 11 -165 14 -330z m-2023 322 c-10 -9 -11 -8 -5 6 3 10 9 15
12 12 3 -3 0 -11 -7 -18z m80 -10 c-8 -8 -11 -7 -11 4 0 20 13 34 18 19 3 -7
-1 -17 -7 -23z m120 10 c-13 -13 -26 -3 -16 12 3 6 11 8 17 5 6 -4 6 -10 -1
-17z m755 -4 c-10 -10 -19 5 -10 18 6 11 8 11 12 0 2 -7 1 -15 -2 -18z m474
18 c0 -6 -4 -13 -10 -16 -5 -3 -10 1 -10 9 0 9 5 16 10 16 6 0 10 -4 10 -9z
m506 -28 c-11 -11 -19 6 -11 24 8 17 8 17 12 0 3 -10 2 -21 -1 -24z m-766 17
c0 -5 -4 -10 -10 -10 -5 0 -10 5 -10 10 0 6 5 10 10 10 6 0 10 -4 10 -10z
m210 -5 c0 -8 -4 -15 -10 -15 -5 0 -10 7 -10 15 0 8 5 15 10 15 6 0 10 -7 10
-15z m-1333 -17 c-3 -8 -6 -5 -6 6 -1 11 2 17 5 13 3 -3 4 -12 1 -19z m107 7
c-4 -8 -8 -15 -10 -15 -2 0 -4 7 -4 15 0 8 4 15 10 15 5 0 7 -7 4 -15z m136
11 c0 -3 -4 -8 -10 -11 -5 -3 -10 -1 -10 4 0 6 5 11 10 11 6 0 10 -2 10 -4z
m830 -6 c0 -5 -4 -10 -10 -10 -5 0 -10 5 -10 10 0 6 5 10 10 10 6 0 10 -4 10
-10z m202 -12 c-7 -7 -12 -8 -12 -2 0 14 12 26 19 19 2 -3 -1 -11 -7 -17z
m-1215 -20 c-3 -7 -5 -2 -5 12 0 14 2 19 5 13 2 -7 2 -19 0 -25z m353 28 c0
-3 -4 -8 -10 -11 -5 -3 -10 -1 -10 4 0 6 5 11 10 11 6 0 10 -2 10 -4z m1080
-11 c0 -8 -7 -15 -15 -15 -8 0 -15 7 -15 15 0 8 7 15 15 15 8 0 15 -7 15 -15z
m-1523 -17 c-3 -8 -6 -5 -6 6 -1 11 2 17 5 13 3 -3 4 -12 1 -19z m1253 12 c0
-5 -4 -10 -10 -10 -5 0 -10 5 -10 10 0 6 5 10 10 10 6 0 10 -4 10 -10z m210
-5 c0 -8 -4 -15 -10 -15 -5 0 -10 7 -10 15 0 8 5 15 10 15 6 0 10 -7 10 -15z
m-1493 -17 c-3 -8 -6 -5 -6 6 -1 11 2 17 5 13 3 -3 4 -12 1 -19z m80 -10 c-3
-7 -5 -2 -5 12 0 14 2 19 5 13 2 -7 2 -19 0 -25z m943 22 c0 -5 -4 -10 -10
-10 -5 0 -10 5 -10 10 0 6 5 10 10 10 6 0 10 -4 10 -10z m210 1 c0 -6 -4 -13
-10 -16 -5 -3 -10 1 -10 9 0 9 5 16 10 16 6 0 10 -4 10 -9z m-1180 -22 c0 -11
-4 -18 -10 -14 -5 3 -7 12 -3 20 7 21 13 19 13 -6z m920 11 c0 -5 -5 -10 -11
-10 -5 0 -7 5 -4 10 3 6 8 10 11 10 2 0 4 -4 4 -10z m470 0 c0 -5 -4 -10 -10
-10 -5 0 -10 5 -10 10 0 6 5 10 10 10 6 0 10 -4 10 -10z m-1293 -22 c-3 -8 -6
-5 -6 6 -1 11 2 17 5 13 3 -3 4 -12 1 -19z m1033 18 c0 -3 -4 -8 -10 -11 -5
-3 -10 -1 -10 4 0 6 5 11 10 11 6 0 10 -2 10 -4z m210 -6 c0 -5 -4 -10 -10
-10 -5 0 -10 5 -10 10 0 6 5 10 10 10 6 0 10 -4 10 -10z m573 -29 c-8 -48 -10
-49 -15 -3 -2 25 1 39 8 39 8 0 10 -12 7 -36z m-1946 7 c-3 -8 -6 -5 -6 6 -1
11 2 17 5 13 3 -3 4 -12 1 -19z m453 12 c0 -5 -4 -10 -10 -10 -5 0 -10 5 -10
10 0 6 5 10 10 10 6 0 10 -4 10 -10z m1080 -16 c0 -8 -7 -14 -15 -14 -15 0
-21 21 -9 33 10 9 24 -2 24 -19z m-1440 6 c0 -5 -4 -10 -10 -10 -5 0 -10 5
-10 10 0 6 5 10 10 10 6 0 10 -4 10 -10z m120 0 c0 -5 -4 -10 -10 -10 -5 0
-10 5 -10 10 0 6 5 10 10 10 6 0 10 -4 10 -10z m1110 6 c0 -3 -4 -8 -10 -11
-5 -3 -10 -1 -10 4 0 6 5 11 10 11 6 0 10 -2 10 -4z m-1353 -28 c-3 -8 -6 -5
-6 6 -1 11 2 17 5 13 3 -3 4 -12 1 -19z m80 0 c-3 -8 -6 -5 -6 6 -1 11 2 17 5
13 3 -3 4 -12 1 -19z m253 18 c0 -3 -4 -8 -10 -11 -5 -3 -10 -1 -10 4 0 6 5
11 10 11 6 0 10 -2 10 -4z m696 -23 c-10 -10 -19 5 -10 18 6 11 8 11 12 0 2
-7 1 -15 -2 -18z m264 17 c0 -5 -4 -10 -10 -10 -5 0 -10 5 -10 10 0 6 5 10 10
10 6 0 10 -4 10 -10z m210 -5 c0 -8 -4 -15 -10 -15 -5 0 -10 7 -10 15 0 8 5
15 10 15 6 0 10 -7 10 -15z m-720 1 c0 -3 -4 -8 -10 -11 -5 -3 -10 -1 -10 4 0
6 5 11 10 11 6 0 10 -2 10 -4z m460 -6 c0 -5 -4 -10 -10 -10 -5 0 -10 5 -10
10 0 6 5 10 10 10 6 0 10 -4 10 -10z m-1090 -10 c0 -5 -5 -10 -11 -10 -5 0 -7
5 -4 10 3 6 8 10 11 10 2 0 4 -4 4 -10z m460 0 c0 -5 -4 -10 -10 -10 -5 0 -10
5 -10 10 0 6 5 10 10 10 6 0 10 -4 10 -10z m370 0 c0 -5 -4 -10 -10 -10 -5 0
-10 5 -10 10 0 6 5 10 10 10 6 0 10 -4 10 -10z m470 0 c0 -5 -4 -10 -10 -10
-5 0 -10 5 -10 10 0 6 5 10 10 10 6 0 10 -4 10 -10z m-50 -10 c0 -5 -4 -10
-10 -10 -5 0 -10 5 -10 10 0 6 5 10 10 10 6 0 10 -4 10 -10z m-1380 -4 c0 -3
-4 -8 -10 -11 -5 -3 -10 -1 -10 4 0 6 5 11 10 11 6 0 10 -2 10 -4z m90 0 c0
-3 -4 -8 -10 -11 -5 -3 -10 -1 -10 4 0 6 5 11 10 11 6 0 10 -2 10 -4z m110 -6
c0 -5 -4 -10 -10 -10 -5 0 -10 5 -10 10 0 6 5 10 10 10 6 0 10 -4 10 -10z
m1130 0 c0 -5 -4 -10 -10 -10 -5 0 -10 5 -10 10 0 6 5 10 10 10 6 0 10 -4 10
-10z m210 -10 c0 -11 -7 -20 -15 -20 -15 0 -21 21 -8 33 12 13 23 7 23 -13z
m-1573 -12 c-3 -8 -6 -5 -6 6 -1 11 2 17 5 13 3 -3 4 -12 1 -19z m80 0 c-3 -8
-6 -5 -6 6 -1 11 2 17 5 13 3 -3 4 -12 1 -19z m243 18 c0 -3 -4 -8 -10 -11 -5
-3 -10 -1 -10 4 0 6 5 11 10 11 6 0 10 -2 10 -4z m560 -6 c0 -5 -4 -10 -10
-10 -5 0 -10 5 -10 10 0 6 5 10 10 10 6 0 10 -4 10 -10z m-610 -16 c0 -8 -5
-12 -10 -9 -6 4 -8 11 -5 16 9 14 15 11 15 -7z m1030 6 c0 -5 -4 -10 -10 -10
-5 0 -10 5 -10 10 0 6 5 10 10 10 6 0 10 -4 10 -10z m218 -2 c-6 -18 -28 -21
-28 -4 0 9 7 16 16 16 9 0 14 -5 12 -12z m-1561 -20 c-3 -8 -6 -5 -6 6 -1 11
2 17 5 13 3 -3 4 -12 1 -19z m93 12 c0 -5 -4 -10 -10 -10 -5 0 -10 5 -10 10 0
6 5 10 10 10 6 0 10 -4 10 -10z m730 0 c0 -5 -4 -10 -10 -10 -5 0 -10 5 -10
10 0 6 5 10 10 10 6 0 10 -4 10 -10z m210 0 c0 -5 -5 -10 -11 -10 -5 0 -7 5
-4 10 3 6 8 10 11 10 2 0 4 -4 4 -10z m260 0 c0 -5 -4 -10 -10 -10 -5 0 -10 5
-10 10 0 6 5 10 10 10 6 0 10 -4 10 -10z m206 -17 c-10 -10 -19 5 -10 18 6 11
8 11 12 0 2 -7 1 -15 -2 -18z m511 -5 c-3 -8 -6 -5 -6 6 -1 11 2 17 5 13 3 -3
4 -12 1 -19z m-1900 -10 c-3 -8 -6 -5 -6 6 -1 11 2 17 5 13 3 -3 4 -12 1 -19z
m873 18 c0 -3 -4 -8 -10 -11 -5 -3 -10 -1 -10 4 0 6 5 11 10 11 6 0 10 -2 10
-4z m470 -6 c0 -5 -4 -10 -10 -10 -5 0 -10 5 -10 10 0 6 5 10 10 10 6 0 10 -4
10 -10z m-1483 -22 c-3 -8 -6 -5 -6 6 -1 11 2 17 5 13 3 -3 4 -12 1 -19z m953
12 c0 -5 -5 -10 -11 -10 -5 0 -7 5 -4 10 3 6 8 10 11 10 2 0 4 -4 4 -10z m260
0 c0 -5 -4 -10 -10 -10 -5 0 -10 5 -10 10 0 6 5 10 10 10 6 0 10 -4 10 -10z
m220 1 c0 -6 -4 -13 -10 -16 -5 -3 -10 1 -10 9 0 9 5 16 10 16 6 0 10 -4 10
-9z m210 -11 c0 -11 -4 -20 -10 -20 -5 0 -10 9 -10 20 0 11 5 20 10 20 6 0 10
-9 10 -20z m-1533 -12 c-3 -8 -6 -5 -6 6 -1 11 2 17 5 13 3 -3 4 -12 1 -19z
m1053 12 c0 -5 -5 -10 -11 -10 -5 0 -7 5 -4 10 3 6 8 10 11 10 2 0 4 -4 4 -10z
m-1143 -22 c-3 -8 -6 -5 -6 6 -1 11 2 17 5 13 3 -3 4 -12 1 -19z m193 18 c0
-3 -4 -8 -10 -11 -5 -3 -10 -1 -10 4 0 6 5 11 10 11 6 0 10 -2 10 -4z m110 -6
c0 -5 -4 -10 -10 -10 -5 0 -10 5 -10 10 0 6 5 10 10 10 6 0 10 -4 10 -10z
m790 0 c0 -5 -5 -10 -11 -10 -5 0 -7 5 -4 10 3 6 8 10 11 10 2 0 4 -4 4 -10z
m260 0 c0 -5 -4 -10 -10 -10 -5 0 -10 5 -10 10 0 6 5 10 10 10 6 0 10 -4 10
-10z m220 2 c0 -13 -12 -22 -22 -16 -10 6 -1 24 13 24 5 0 9 -4 9 -8z m447
-24 c-3 -7 -5 -2 -5 12 0 14 2 19 5 13 2 -7 2 -19 0 -25z m-977 12 c0 -5 -5
-10 -11 -10 -5 0 -7 5 -4 10 3 6 8 10 11 10 2 0 4 -4 4 -10z m260 0 c0 -5 -4
-10 -10 -10 -5 0 -10 5 -10 10 0 6 5 10 10 10 6 0 10 -4 10 -10z m206 -17
c-10 -10 -19 5 -10 18 6 11 8 11 12 0 2 -7 1 -15 -2 -18z m-1539 -5 c-3 -8 -6
-5 -6 6 -1 11 2 17 5 13 3 -3 4 -12 1 -19z m140 0 c-3 -8 -6 -5 -6 6 -1 11 2
17 5 13 3 -3 4 -12 1 -19z m883 12 c0 -5 -5 -10 -11 -10 -5 0 -7 5 -4 10 3 6
8 10 11 10 2 0 4 -4 4 -10z m196 -27 c-10 -10 -19 5 -10 18 6 11 8 11 12 0 2
-7 1 -15 -2 -18z m274 17 c0 -5 -4 -10 -10 -10 -5 0 -10 5 -10 10 0 6 5 10 10
10 6 0 10 -4 10 -10z m-1460 -16 c0 -8 -5 -12 -10 -9 -6 4 -8 11 -5 16 9 14
15 11 15 -7z m77 -6 c-3 -8 -6 -5 -6 6 -1 11 2 17 5 13 3 -3 4 -12 1 -19z m90
0 c-3 -8 -6 -5 -6 6 -1 11 2 17 5 13 3 -3 4 -12 1 -19z m1243 12 c0 -5 -7 -10
-16 -10 -8 0 -12 5 -9 10 3 6 10 10 16 10 5 0 9 -4 9 -10z m210 -10 c0 -11 -4
-20 -10 -20 -5 0 -10 9 -10 20 0 11 5 20 10 20 6 0 10 -9 10 -20z m-480 6 c0
-3 -4 -8 -10 -11 -5 -3 -10 -1 -10 4 0 6 5 11 10 11 6 0 10 -2 10 -4z m202
-18 c-7 -7 -12 -8 -12 -2 0 14 12 26 19 19 2 -3 -1 -11 -7 -17z m228 3 c0 -6
-4 -13 -10 -16 -5 -3 -10 1 -10 9 0 9 5 16 10 16 6 0 10 -4 10 -9z m447 -13
c-3 -8 -6 -5 -6 6 -1 11 2 17 5 13 3 -3 4 -12 1 -19z m-977 2 c0 -5 -4 -10
-10 -10 -5 0 -10 5 -10 10 0 6 5 10 10 10 6 0 10 -4 10 -10z m260 0 c0 -5 -4
-10 -10 -10 -5 0 -10 5 -10 10 0 6 5 10 10 10 6 0 10 -4 10 -10z m202 -12 c-7
-7 -12 -8 -12 -2 0 14 12 26 19 19 2 -3 -1 -11 -7 -17z m-1514 -55 c-6 -29
-15 -53 -20 -53 -6 0 -8 10 -5 23 3 12 9 39 13 60 3 21 10 35 14 30 5 -4 4
-32 -2 -60z m79 45 c-3 -8 -6 -5 -6 6 -1 11 2 17 5 13 3 -3 4 -12 1 -19z m923
12 c0 -5 -4 -10 -10 -10 -5 0 -10 5 -10 10 0 6 5 10 10 10 6 0 10 -4 10 -10z
m242 -12 c-7 -7 -12 -8 -12 -2 0 14 12 26 19 19 2 -3 -1 -11 -7 -17z m224 -5
c-10 -10 -19 5 -10 18 6 11 8 11 12 0 2 -7 1 -15 -2 -18z m-521 7 c3 -5 1 -10
-4 -10 -6 0 -11 5 -11 10 0 6 2 10 4 10 3 0 8 -4 11 -10z m255 -4 c0 -3 -4 -8
-10 -11 -5 -3 -10 -1 -10 4 0 6 5 11 10 11 6 0 10 -2 10 -4z m220 -6 c0 -5 -4
-10 -10 -10 -5 0 -10 5 -10 10 0 6 5 10 10 10 6 0 10 -4 10 -10z m210 -10 c0
-11 -4 -20 -10 -20 -5 0 -10 9 -10 20 0 11 5 20 10 20 6 0 10 -9 10 -20z
m-278 -12 c-7 -7 -12 -8 -12 -2 0 14 12 26 19 19 2 -3 -1 -11 -7 -17z m668
-38 l-7 -45 -2 55 c0 32 3 50 8 45 5 -6 5 -30 1 -55z m-440 35 c0 -8 -4 -15
-10 -15 -5 0 -10 7 -10 15 0 8 5 15 10 15 6 0 10 -7 10 -15z m-800 -5 c0 -5
-5 -10 -11 -10 -5 0 -7 5 -4 10 3 6 8 10 11 10 2 0 4 -4 4 -10z m530 6 c0 -3
-4 -8 -10 -11 -5 -3 -10 -1 -10 4 0 6 5 11 10 11 6 0 10 -2 10 -4z m207 -18
c-3 -8 -6 -5 -6 6 -1 11 2 17 5 13 3 -3 4 -12 1 -19z m-275 -10 c-7 -7 -12 -8
-12 -2 0 14 12 26 19 19 2 -3 -1 -11 -7 -17z m-292 8 c0 -3 -4 -8 -10 -11 -5
-3 -10 -1 -10 4 0 6 5 11 10 11 6 0 10 -2 10 -4z m520 -6 c0 -5 -4 -10 -10
-10 -5 0 -10 5 -10 10 0 6 5 10 10 10 6 0 10 -4 10 -10z m-270 -4 c0 -3 -4 -8
-10 -11 -5 -3 -10 -1 -10 4 0 6 5 11 10 11 6 0 10 -2 10 -4z m220 -6 c0 -5 -4
-10 -10 -10 -5 0 -10 5 -10 10 0 6 5 10 10 10 6 0 10 -4 10 -10z m218 -7 c-5
-25 -28 -28 -28 -4 0 12 6 21 16 21 9 0 14 -7 12 -17z m-498 -3 c0 -5 -5 -10
-11 -10 -5 0 -7 5 -4 10 3 6 8 10 11 10 2 0 4 -4 4 -10z m212 -12 c-7 -7 -12
-8 -12 -2 0 14 12 26 19 19 2 -3 -1 -11 -7 -17z m228 -3 c0 -8 -4 -15 -10 -15
-5 0 -10 7 -10 15 0 8 5 15 10 15 6 0 10 -7 10 -15z m-800 -5 c0 -5 -5 -10
-11 -10 -5 0 -7 5 -4 10 3 6 8 10 11 10 2 0 4 -4 4 -10z m525 0 c3 -5 1 -10
-4 -10 -6 0 -11 5 -11 10 0 6 2 10 4 10 3 0 8 -4 11 -10z m-1208 -22 c-3 -8
-6 -5 -6 6 -1 11 2 17 5 13 3 -3 4 -12 1 -19z m1153 12 c0 -5 -5 -10 -11 -10
-5 0 -7 5 -4 10 3 6 8 10 11 10 2 0 4 -4 4 -10z m1115 -158 c-6 -163 -14 -212
-16 -99 -4 189 -1 269 11 262 7 -4 9 -60 5 -163z m247 6 c-2 -90 -6 -165 -8
-167 -10 -10 -14 11 -15 80 -4 149 3 249 15 249 9 0 11 -40 8 -162z m-1142
142 c0 -5 -4 -10 -10 -10 -5 0 -10 5 -10 10 0 6 5 10 10 10 6 0 10 -4 10 -10z
m-270 -10 c0 -5 -4 -10 -10 -10 -5 0 -10 5 -10 10 0 6 5 10 10 10 6 0 10 -4
10 -10z m220 0 c0 -5 -4 -10 -10 -10 -5 0 -10 5 -10 10 0 6 5 10 10 10 6 0 10
-4 10 -10z m220 -10 c0 -11 -7 -20 -15 -20 -8 0 -15 9 -15 20 0 11 7 20 15 20
8 0 15 -9 15 -20z m-500 0 c0 -5 -4 -10 -10 -10 -5 0 -10 5 -10 10 0 6 5 10
10 10 6 0 10 -4 10 -10z m-1133 -22 c-3 -8 -6 -5 -6 6 -1 11 2 17 5 13 3 -3 4
-12 1 -19z m1353 12 c0 -5 -4 -10 -10 -10 -5 0 -10 5 -10 10 0 6 5 10 10 10 6
0 10 -4 10 -10z m220 -5 c0 -8 -4 -15 -10 -15 -5 0 -10 7 -10 15 0 8 5 15 10
15 6 0 10 -7 10 -15z m-270 -5 c0 -5 -4 -10 -10 -10 -5 0 -10 5 -10 10 0 6 5
10 10 10 6 0 10 -4 10 -10z m220 -4 c0 -3 -4 -8 -10 -11 -5 -3 -10 -1 -10 4 0
6 5 11 10 11 6 0 10 -2 10 -4z m-280 -16 c0 -5 -4 -10 -10 -10 -5 0 -10 5 -10
10 0 6 5 10 10 10 6 0 10 -4 10 -10z m220 0 c0 -5 -4 -10 -10 -10 -5 0 -10 5
-10 10 0 6 5 10 10 10 6 0 10 -4 10 -10z m-1460 -15 c0 -8 -4 -15 -10 -15 -5
0 -10 7 -10 15 0 8 5 15 10 15 6 0 10 -7 10 -15z m216 -12 c-10 -10 -19 5 -10
18 6 11 8 11 12 0 2 -7 1 -15 -2 -18z m974 17 c0 -5 -4 -10 -10 -10 -5 0 -10
5 -10 10 0 6 5 10 10 10 6 0 10 -4 10 -10z m220 1 c0 -6 -4 -13 -10 -16 -5 -3
-10 1 -10 9 0 9 5 16 10 16 6 0 10 -4 10 -9z m220 -11 c0 -21 -15 -27 -25 -10
-7 12 2 30 16 30 5 0 9 -9 9 -20z m-500 0 c0 -5 -5 -10 -11 -10 -5 0 -7 5 -4
10 3 6 8 10 11 10 2 0 4 -4 4 -10z m220 -10 c0 -5 -4 -10 -10 -10 -5 0 -10 5
-10 10 0 6 5 10 10 10 6 0 10 -4 10 -10z m222 -5 c0 -5 -5 -11 -11 -13 -6 -2
-11 4 -11 13 0 9 5 15 11 13 6 -2 11 -8 11 -13z m-280 -17 c-7 -7 -12 -8 -12
-2 0 14 12 26 19 19 2 -3 -1 -11 -7 -17z m-1302 -4 c0 -8 -4 -12 -10 -9 -5 3
-10 10 -10 16 0 5 5 9 10 9 6 0 10 -7 10 -16z m1530 12 c0 -3 -4 -8 -10 -11
-5 -3 -10 -1 -10 4 0 6 5 11 10 11 6 0 10 -2 10 -4z m757 -28 c-3 -7 -5 -2 -5
12 0 14 2 19 5 13 2 -7 2 -19 0 -25z m-589 5 c-5 -25 -28 -28 -28 -4 0 12 6
21 16 21 9 0 14 -7 12 -17z m-498 -3 c0 -5 -4 -10 -10 -10 -5 0 -10 5 -10 10
0 6 5 10 10 10 6 0 10 -4 10 -10z m220 0 c0 -5 -4 -10 -10 -10 -5 0 -10 5 -10
10 0 6 5 10 10 10 6 0 10 -4 10 -10z m216 -27 c-11 -11 -19 6 -11 24 8 17 8
17 12 0 3 -10 2 -21 -1 -24z m-1641 8 c3 -5 1 -12 -5 -16 -5 -3 -10 1 -10 9 0
18 6 21 15 7z m1375 5 c0 -11 -19 -15 -25 -6 -3 5 1 10 9 10 9 0 16 -2 16 -4z
m220 -5 c0 -6 -4 -13 -10 -16 -5 -3 -10 1 -10 9 0 9 5 16 10 16 6 0 10 -4 10
-9z m-280 -11 c0 -5 -4 -10 -10 -10 -5 0 -10 5 -10 10 0 6 5 10 10 10 6 0 10
-4 10 -10z m216 -17 c-10 -10 -19 5 -10 18 6 11 8 11 12 0 2 -7 1 -15 -2 -18z
m761 -5 c-3 -8 -6 -5 -6 6 -1 11 2 17 5 13 3 -3 4 -12 1 -19z m-2257 2 c0 -5
-4 -10 -10 -10 -5 0 -10 5 -10 10 0 6 5 10 10 10 6 0 10 -4 10 -10z m1445 0
c3 -5 1 -10 -4 -10 -6 0 -11 5 -11 10 0 6 2 10 4 10 3 0 8 -4 11 -10z m225 -5
c0 -8 -4 -15 -10 -15 -5 0 -10 7 -10 15 0 8 5 15 10 15 6 0 10 -7 10 -15z
m-1710 -16 c0 -5 -4 -9 -10 -9 -5 0 -10 7 -10 16 0 8 5 12 10 9 6 -3 10 -10
10 -16z m1210 11 c0 -5 -4 -10 -10 -10 -5 0 -10 5 -10 10 0 6 5 10 10 10 6 0
10 -4 10 -10z m220 0 c0 -5 -5 -10 -11 -10 -5 0 -7 5 -4 10 3 6 8 10 11 10 2
0 4 -4 4 -10z m220 -10 c0 -5 -5 -10 -11 -10 -5 0 -7 5 -4 10 3 6 8 10 11 10
2 0 4 -4 4 -10z m-270 -4 c0 -3 -4 -8 -10 -11 -5 -3 -10 -1 -10 4 0 6 5 11 10
11 6 0 10 -2 10 -4z m212 -18 c-7 -7 -12 -8 -12 -2 0 14 12 26 19 19 2 -3 -1
-11 -7 -17z m228 8 c0 -8 -4 -17 -9 -21 -12 -7 -24 12 -16 25 9 15 25 12 25
-4z m-508 -18 c-7 -7 -12 -8 -12 -2 0 14 12 26 19 19 2 -3 -1 -11 -7 -17z
m450 -10 c-15 -15 -26 -4 -18 18 5 13 9 15 18 6 9 -9 9 -15 0 -24z m-222 12
c0 -5 -4 -10 -10 -10 -5 0 -10 5 -10 10 0 6 5 10 10 10 6 0 10 -4 10 -10z
m-50 -10 c0 -5 -4 -10 -10 -10 -5 0 -10 5 -10 10 0 6 5 10 10 10 6 0 10 -4 10
-10z m216 -17 c-10 -10 -19 5 -10 18 6 11 8 11 12 0 2 -7 1 -15 -2 -18z m224
7 c0 -11 -4 -20 -10 -20 -5 0 -10 9 -10 20 0 11 5 20 10 20 6 0 10 -9 10 -20z
m-275 -10 c3 -5 1 -10 -4 -10 -6 0 -11 5 -11 10 0 6 2 10 4 10 3 0 8 -4 11
-10z m225 -5 c0 -8 -7 -15 -15 -15 -8 0 -15 7 -15 15 0 8 7 15 15 15 8 0 15
-7 15 -15z m-500 1 c0 -3 -4 -8 -10 -11 -5 -3 -10 -1 -10 4 0 6 5 11 10 11 6
0 10 -2 10 -4z m216 -23 c-10 -10 -19 5 -10 18 6 11 8 11 12 0 2 -7 1 -15 -2
-18z m224 12 c0 -8 -4 -15 -10 -15 -5 0 -10 7 -10 15 0 8 5 15 10 15 6 0 10
-7 10 -15z m-500 -5 c0 -5 -5 -10 -11 -10 -5 0 -7 5 -4 10 3 6 8 10 11 10 2 0
4 -4 4 -10z m710 -11 c0 -6 -4 -7 -10 -4 -5 3 -10 11 -10 16 0 6 5 7 10 4 6
-3 10 -11 10 -16z m-260 2 c0 -6 -4 -13 -10 -16 -5 -3 -10 1 -10 9 0 9 5 16
10 16 6 0 10 -4 10 -9z m-280 -11 c0 -5 -5 -10 -11 -10 -5 0 -7 5 -4 10 3 6 8
10 11 10 2 0 4 -4 4 -10z m220 -10 c0 -5 -4 -10 -10 -10 -5 0 -10 5 -10 10 0
6 5 10 10 10 6 0 10 -4 10 -10z m220 -5 c0 -8 -4 -15 -10 -15 -5 0 -10 7 -10
15 0 8 5 15 10 15 6 0 10 -7 10 -15z m-270 -4 c0 -6 -4 -13 -10 -16 -5 -3 -10
1 -10 9 0 9 5 16 10 16 6 0 10 -4 10 -9z m220 -6 c0 -8 -4 -15 -10 -15 -5 0
-10 7 -10 15 0 8 5 15 10 15 6 0 10 -7 10 -15z m-500 -5 c0 -5 -2 -10 -4 -10
-3 0 -8 5 -11 10 -3 6 -1 10 4 10 6 0 11 -4 11 -10z"/>
<path d="M2640 2096 c0 -2 7 -6 15 -10 8 -3 15 -1 15 4 0 6 -7 10 -15 10 -8 0
-15 -2 -15 -4z"/>
<path d="M2635 2050 c-3 -6 1 -7 9 -4 18 7 21 14 7 14 -6 0 -13 -4 -16 -10z"/>
<path d="M2555 1900 c-10 -11 -14 -20 -9 -20 12 1 44 25 44 34 0 12 -17 6 -35
-14z"/>
<path d="M2433 1736 c0 -8 6 -12 14 -9 7 3 10 9 7 14 -8 14 -21 11 -21 -5z"/>
<path d="M2265 1630 c3 -5 8 -10 11 -10 2 0 4 5 4 10 0 6 -5 10 -11 10 -5 0
-7 -4 -4 -10z"/>
<path d="M2298 1563 c7 -3 16 -2 19 1 4 3 -2 6 -13 5 -11 0 -14 -3 -6 -6z"/>
<path d="M2691 1564 c0 -11 3 -14 6 -6 3 7 2 16 -1 19 -3 4 -6 -2 -5 -13z"/>
<path d="M1665 1490 c3 -5 8 -10 11 -10 2 0 4 5 4 10 0 6 -5 10 -11 10 -5 0
-7 -4 -4 -10z"/>
<path d="M2295 1297 c-8 -20 -15 -43 -15 -50 0 -20 -43 -152 -68 -209 -13 -30
-17 -50 -11 -54 15 -9 17 -5 34 64 9 34 26 84 37 110 22 47 50 163 42 171 -2
2 -11 -12 -19 -32z"/>
<path d="M2215 940 c-3 -5 -1 -10 4 -10 6 0 11 5 11 10 0 6 -2 10 -4 10 -3 0
-8 -4 -11 -10z"/>
<path d="M2042 270 c0 -14 2 -19 5 -12 2 6 2 18 0 25 -3 6 -5 1 -5 -13z"/>
<path d="M2020 3860 c-9 -6 -10 -10 -3 -10 6 0 15 5 18 10 8 12 4 12 -15 0z"/>
<path d="M1838 3793 c7 -3 16 -2 19 1 4 3 -2 6 -13 5 -11 0 -14 -3 -6 -6z"/>
<path d="M2302 3348 c-35 -33 -46 -38 -53 -27 -7 11 -9 10 -9 -5 0 -12 -5 -16
-15 -12 -17 6 -18 -5 -9 -53 4 -17 13 -31 20 -31 8 0 14 -9 14 -20 0 -26 12
-25 36 2 19 21 19 21 -3 16 -18 -5 -33 7 -33 25 0 1 10 3 23 4 87 7 236 24
255 28 26 6 98 -28 123 -59 30 -36 35 6 8 61 -19 38 -35 53 -79 76 -50 26 -63
28 -143 25 -48 -2 -88 0 -90 4 -1 4 -22 -11 -45 -34z"/>
<path d="M2295 3169 c-88 -29 -118 -77 -79 -125 15 -18 15 -18 10 0 -5 14 -2
17 10 12 8 -3 29 -6 45 -6 17 0 29 -5 29 -13 0 -21 37 -38 62 -27 17 6 19 9 6
9 -10 1 -18 6 -18 12 0 6 27 10 73 9 39 -1 74 -1 77 0 3 1 25 4 49 6 85 10
103 39 53 87 -29 28 -101 58 -136 56 -14 0 -9 -4 14 -11 36 -10 75 -38 52 -38
-7 0 -12 5 -12 11 0 6 -7 9 -15 6 -8 -4 -17 -2 -20 3 -3 5 -18 5 -33 1 -15 -3
-45 -4 -67 -1 -36 5 -38 6 -20 17 l20 12 -20 0 c-11 0 -47 -9 -80 -20z m71
-85 c10 -30 9 -34 -3 -30 -8 4 -26 9 -40 12 l-24 6 22 24 c12 13 25 24 28 24
3 0 11 -16 17 -36z m164 2 c0 -8 -13 -19 -30 -25 -28 -9 -42 0 -20 14 6 3 10
15 10 26 0 17 3 18 20 9 11 -6 20 -17 20 -24z m-282 4 c-13 -21 -38 -27 -38
-10 0 9 28 29 43 30 4 0 2 -9 -5 -20z"/>
<path d="M2153 3083 c7 -41 20 -59 36 -49 7 4 3 21 -10 46 -26 50 -33 51 -26
3z"/>
<path d="M2510 3014 c-39 -11 -41 -12 -15 -13 17 0 41 6 55 14 30 17 21 17
-40 -1z"/>
<path d="M2830 3012 c0 -5 7 -15 15 -22 8 -7 15 -18 15 -26 0 -7 4 -15 8 -18
5 -3 6 11 3 32 -4 24 -12 38 -24 40 -9 2 -17 -1 -17 -6z"/>
<path d="M2428 3003 c7 -3 16 -2 19 1 4 3 -2 6 -13 5 -11 0 -14 -3 -6 -6z"/>
<path d="M1810 2980 c-8 -5 -10 -10 -5 -10 6 0 17 5 25 10 8 5 11 10 5 10 -5
0 -17 -5 -25 -10z"/>
<path d="M2428 2983 c7 -3 16 -2 19 1 4 3 -2 6 -13 5 -11 0 -14 -3 -6 -6z"/>
<path d="M2478 2983 c7 -3 16 -2 19 1 4 3 -2 6 -13 5 -11 0 -14 -3 -6 -6z"/>
<path d="M2150 2960 c0 -5 5 -10 10 -10 6 0 10 5 10 10 0 6 -4 10 -10 10 -5 0
-10 -4 -10 -10z"/>
<path d="M2177 2936 c-4 -9 3 -16 19 -19 28 -5 30 -1 10 19 -18 18 -22 18 -29
0z"/>
<path d="M2859 2824 c-9 -60 -20 -118 -24 -129 -7 -17 -6 -18 6 -8 15 12 46
207 37 233 -2 7 -11 -36 -19 -96z"/>
<path d="M1730 2849 c0 -5 5 -7 10 -4 6 3 10 8 10 11 0 2 -4 4 -10 4 -5 0 -10
-5 -10 -11z"/>
<path d="M1655 2780 c-8 -13 4 -32 16 -25 12 8 12 35 0 35 -6 0 -13 -4 -16
-10z"/>
<path d="M1850 2564 c0 -14 3 -15 18 -3 9 7 19 15 21 16 2 2 -5 3 -17 3 -14 0
-22 -6 -22 -16z"/>
<path d="M2167 2573 c-10 -9 -9 -43 2 -43 5 0 11 6 14 13 6 17 -7 40 -16 30z"/>
<path d="M2680 2539 c0 -5 5 -7 10 -4 6 3 10 8 10 11 0 2 -4 4 -10 4 -5 0 -10
-5 -10 -11z"/>
<path d="M1758 2260 c-23 -26 -41 -61 -34 -68 3 -3 6 -1 6 5 0 6 17 27 37 47
21 20 31 36 23 35 -8 0 -23 -9 -32 -19z"/>
<path d="M2133 2163 c9 -9 20 -13 24 -9 4 4 1 11 -7 16 -25 16 -35 11 -17 -7z"/>
<path d="M1955 2110 c0 -54 8 -62 25 -30 8 16 8 28 -2 50 -7 17 -15 30 -18 30
-3 0 -5 -22 -5 -50z"/>
<path d="M2016 2132 c-4 -13 -5 -26 -2 -29 10 -11 18 4 14 29 l-4 23 -8 -23z"/>
<path d="M2070 2114 c-5 -12 -6 -32 -3 -43 5 -21 6 -21 26 -4 19 17 20 17 14
1 -4 -11 -2 -18 6 -18 7 0 -1 -12 -16 -25 -15 -14 -24 -25 -18 -25 5 0 13 5
16 11 4 6 13 8 20 5 7 -2 17 6 24 20 6 13 15 24 21 24 5 0 10 10 11 23 0 21 1
21 9 2 7 -17 9 -14 9 13 1 32 0 33 -29 27 -19 -4 -30 -3 -30 4 0 20 -52 7 -60
-15z m21 -21 c-12 -20 -14 -14 -5 12 4 9 9 14 11 11 3 -2 0 -13 -6 -23z"/>
<path d="M2745 2090 c3 -5 14 -10 23 -10 15 0 15 2 2 10 -20 13 -33 13 -25 0z"/>
<path d="M2763 2053 c-24 -9 -13 -23 20 -23 17 0 57 -7 87 -15 30 -8 55 -13
57 -11 2 1 -18 12 -45 24 -52 23 -100 33 -119 25z"/>
<path d="M2038 2043 c7 -3 16 -2 19 1 4 3 -2 6 -13 5 -11 0 -14 -3 -6 -6z"/>
<path d="M2161 2034 c0 -11 3 -14 6 -6 3 7 2 16 -1 19 -3 4 -6 -2 -5 -13z"/>
<path d="M2728 2015 c6 -41 22 -57 22 -22 0 15 -4 27 -9 27 -5 0 -11 6 -14 13
-2 6 -2 -1 1 -18z"/>
<path d="M2760 2010 c0 -5 7 -10 16 -10 10 0 14 -6 11 -15 -4 -8 -2 -17 3 -20
12 -8 13 -25 1 -25 -5 0 -12 12 -15 26 -8 31 -11 29 -20 -11 -5 -22 -4 -26 4
-15 8 13 10 12 11 -5 2 -46 6 -80 9 -85 1 -3 4 -54 5 -115 2 -86 -3 -136 -22
-230 -23 -111 -27 -172 -22 -330 2 -36 -7 -167 -17 -250 -1 -16 -6 -167 -9
-335 -3 -168 -7 -352 -9 -410 -4 -127 2 -180 20 -180 8 0 14 7 14 15 0 8 5 15
10 15 6 0 10 -6 10 -14 0 -10 17 -14 65 -15 l65 -1 1 143 c2 257 2 578 -1 802
-2 121 0 254 5 295 11 97 11 107 1 220 -16 186 -16 254 -1 298 14 38 13 46 -6
97 -11 30 -19 58 -17 62 3 5 -9 22 -25 38 -30 30 -30 30 -14 3 20 -32 36 -178
20 -178 -6 0 -11 17 -11 38 -1 20 -8 63 -17 95 -10 40 -12 64 -5 75 5 10 10
12 10 5 0 -7 7 -13 16 -13 8 0 13 -4 10 -8 -10 -17 13 -34 52 -39 33 -4 42
-10 47 -30 8 -35 -2 -41 -16 -9 -12 26 -29 35 -29 15 0 -6 -6 -9 -14 -6 -11 4
-10 -1 3 -26 10 -20 15 -50 13 -82 -2 -27 -3 -99 -3 -160 1 -60 2 -453 3 -872
2 -570 6 -763 15 -763 16 0 18 67 16 450 -6 792 -11 1136 -17 1151 -9 20 9 34
21 17 8 -13 13 -382 16 -1165 2 -330 5 -453 13 -453 7 0 14 10 18 22 6 26 -2
882 -9 943 -3 22 -7 157 -10 300 -2 143 -7 304 -10 358 -3 59 -2 97 4 97 15 0
20 -80 25 -375 3 -148 7 -295 10 -325 14 -188 22 -662 16 -898 -2 -61 0 -115
4 -119 16 -16 26 28 27 122 2 181 -1 539 -6 610 -2 39 -7 122 -11 185 -3 63
-8 133 -10 155 -8 90 -15 261 -18 450 -2 110 -7 226 -11 258 -5 40 -4 57 4 57
6 0 11 -8 12 -17 1 -10 2 -34 4 -53 2 -19 6 -127 9 -240 7 -207 8 -228 21
-400 4 -52 8 -117 10 -145 12 -164 19 -408 18 -678 0 -254 2 -307 13 -307 16
0 16 15 17 365 0 189 -6 370 -18 540 -3 33 -7 98 -11 145 -12 168 -21 335 -29
565 -3 82 -10 166 -15 188 -7 31 -6 37 6 33 11 -4 13 0 8 19 -5 19 -3 24 7 20
9 -3 14 -24 15 -60 1 -30 -2 -52 -7 -49 -10 6 -12 -9 -2 -19 3 -4 7 -58 9
-119 2 -117 12 -320 19 -398 2 -25 7 -85 11 -135 3 -49 8 -103 9 -120 12 -155
20 -412 20 -667 0 -243 2 -308 12 -308 10 0 13 27 14 103 4 267 2 494 -5 617
-4 74 -10 169 -12 210 -2 41 -6 98 -8 125 -5 46 -9 100 -21 305 -3 41 -7 118
-10 170 -11 168 -11 320 0 320 6 1 -3 12 -20 25 -16 14 -25 25 -19 25 6 0 17
-6 23 -13 11 -14 77 -50 123 -66 16 -6 27 -17 26 -28 0 -19 9 -105 17 -160 3
-18 7 -46 9 -61 3 -16 14 -64 26 -108 12 -43 23 -95 26 -114 3 -19 11 -55 19
-80 19 -64 24 -98 35 -245 6 -71 14 -164 19 -205 11 -85 16 -133 31 -275 5
-55 14 -123 18 -151 13 -81 -9 -344 -29 -344 -5 0 -5 21 -2 48 10 62 10 279 1
367 -4 39 -10 104 -14 145 -3 41 -7 91 -10 110 -13 107 -26 237 -31 330 -3 58
-9 112 -13 120 -4 8 -15 53 -25 100 -9 47 -21 99 -26 117 -6 17 -12 43 -15 57
-2 15 -13 64 -24 109 -11 46 -22 114 -25 152 -5 78 -12 105 -27 105 -6 0 -8
-11 -4 -27 3 -16 10 -68 15 -118 5 -49 15 -115 22 -145 6 -30 13 -62 14 -70 1
-8 4 -22 8 -30 3 -8 18 -62 32 -120 14 -58 32 -130 39 -160 8 -30 16 -113 20
-183 3 -70 7 -131 10 -135 6 -11 15 -116 21 -257 3 -66 9 -142 14 -170 4 -27
7 -77 6 -110 -4 -103 -17 -270 -21 -277 -3 -4 11 -7 31 -6 20 1 38 6 42 11 3
5 10 3 15 -4 7 -10 8 -4 4 19 -3 18 -1 32 4 32 6 0 9 -3 9 -7 -4 -22 2 -53 9
-53 5 0 13 12 20 27 l12 28 -4 -27 c-4 -38 10 -36 18 2 3 17 10 30 16 30 13 0
13 -27 0 -35 -15 -9 -12 -25 4 -25 7 0 16 14 20 30 3 17 11 30 17 30 7 0 9
-10 6 -29 -6 -28 -4 -29 26 -28 l32 2 2 77 c3 81 28 158 50 158 14 0 18 -26 6
-32 -5 -2 -16 -17 -25 -35 -22 -39 -24 -75 -4 -67 8 3 13 11 10 19 -3 7 2 15
10 18 9 4 16 13 16 22 0 8 4 15 8 15 5 0 14 16 22 35 8 19 17 35 22 35 4 0 8
9 8 20 0 11 4 20 9 20 5 0 12 10 16 23 5 12 11 31 15 42 6 19 7 19 14 -3 6
-17 3 -27 -9 -36 -10 -7 -18 -28 -19 -47 -2 -19 -7 -33 -14 -32 -6 2 -21 -17
-32 -41 -11 -24 -23 -46 -27 -48 -5 -1 -16 -16 -25 -33 -10 -16 -23 -29 -29
-27 -7 2 -9 -4 -5 -15 4 -10 10 -30 13 -44 4 -23 10 -26 44 -26 31 0 39 3 37
16 -1 9 2 17 7 18 6 1 9 -7 8 -18 -2 -11 3 -19 12 -19 16 0 19 17 16 85 -1 22
-1 48 -2 58 0 14 -5 16 -21 11 -15 -4 -19 -2 -16 7 4 11 35 14 45 5 10 -10 19
-104 13 -132 -6 -25 -5 -34 5 -34 14 0 18 26 17 115 -1 73 -3 86 -13 79 -4 -2
-10 0 -13 5 -10 15 13 24 28 12 18 -15 29 -102 17 -133 -11 -30 -3 -78 14 -78
10 0 12 14 8 58 -4 40 -2 54 5 47 6 -5 13 -30 16 -55 2 -25 5 -46 5 -47 1 -2
6 -3 12 -3 7 0 9 20 5 61 -7 68 -14 88 -26 69 -4 -7 -8 9 -8 34 -1 28 3 44 8
41 6 -3 10 -17 10 -31 0 -13 5 -23 12 -22 7 2 13 -4 13 -12 6 -78 19 -140 31
-140 16 0 19 55 4 65 -6 4 -10 12 -8 18 3 21 -14 117 -20 113 -4 -2 -8 12 -10
31 -1 19 -7 43 -12 53 -13 24 -13 60 -1 60 6 0 15 -27 22 -60 6 -33 16 -60 20
-60 5 0 9 -12 9 -27 0 -54 34 -193 47 -193 17 0 17 3 -7 102 -11 46 -21 97
-23 113 -3 17 -9 42 -15 57 -6 15 -14 51 -18 80 -4 29 -10 58 -14 63 -7 10
-30 96 -30 114 0 27 18 7 28 -31 6 -24 20 -77 32 -118 12 -41 25 -97 30 -125
4 -27 11 -61 15 -75 3 -14 13 -58 20 -99 14 -75 20 -89 32 -78 7 8 -8 99 -38
217 -6 25 -12 59 -14 75 -4 42 -36 168 -46 181 -8 10 -39 119 -39 136 0 4 5 8
10 8 6 0 10 -11 10 -25 0 -14 9 -43 19 -64 22 -42 61 -186 61 -224 0 -13 6
-40 14 -59 15 -34 21 -69 32 -185 5 -45 11 -63 21 -63 8 0 11 4 8 10 -9 15
-12 36 -19 125 -4 57 -3 72 4 51 5 -16 10 -50 12 -75 1 -25 8 -62 15 -81 l12
-35 0 32 c1 18 -3 54 -8 80 -13 68 -23 189 -15 180 4 -3 9 -26 10 -49 3 -37
13 -109 19 -143 1 -5 3 -29 3 -52 1 -24 5 -43 10 -43 7 0 0 113 -12 195 l-6
40 14 -35 c8 -19 15 -62 16 -95 1 -33 6 -71 10 -85 7 -23 8 -23 10 10 l3 35 7
-35 c4 -21 8 -27 9 -15 l2 20 9 -20 c7 -17 9 -14 10 15 l2 35 9 -32 c5 -18 14
-33 20 -33 6 0 8 8 5 18 -6 19 -18 77 -36 165 -18 89 -6 78 15 -13 12 -53 21
-76 27 -68 5 8 6 -1 3 -22 -4 -19 -1 -46 5 -60 9 -22 10 -20 5 15 l-5 40 16
-37 c31 -73 33 -37 3 45 -34 90 -111 376 -106 392 2 6 18 -48 35 -120 28 -118
79 -275 102 -315 6 -9 8 12 6 58 -2 47 -8 77 -16 82 -7 4 -9 13 -5 21 6 11 5
11 -5 2 -11 -10 -10 -20 5 -58 9 -25 15 -48 12 -51 -3 -3 -12 16 -21 42 -16
49 -12 99 8 87 6 -3 6 -1 -1 8 -7 7 -13 21 -13 32 0 11 -4 15 -12 11 -7 -4 -8
-3 -4 5 5 7 5 24 1 39 -6 24 -8 25 -17 8 -7 -13 -5 -30 7 -63 9 -24 15 -46 12
-49 -3 -3 -12 17 -21 44 -13 38 -14 56 -6 77 12 33 4 69 -15 61 -9 -3 -18 17
-30 66 -9 38 -14 72 -11 75 3 4 6 -3 6 -15 0 -11 4 -23 10 -27 5 -3 2 18 -6
47 -9 29 -20 55 -25 56 -5 2 -9 11 -9 20 0 10 -7 26 -15 36 -8 11 -15 29 -15
40 1 19 2 19 16 -4 l15 -25 -6 25 c-14 53 -17 60 -26 57 -6 -1 -18 16 -27 38
-9 22 -21 46 -28 52 -7 7 -20 34 -29 60 -10 27 -22 60 -27 76 -6 15 -28 45
-50 67 -22 22 -38 45 -36 52 6 18 65 -46 90 -97 11 -23 17 -30 14 -16 -3 13 2
38 10 55 l15 31 -19 -22 -20 -23 -15 33 c-16 33 -56 73 -69 69 -5 -1 -8 16 -8
38 0 22 5 40 11 40 5 0 26 -17 44 -37 41 -44 47 -35 9 14 -14 18 -23 37 -20
41 3 5 -7 26 -21 47 -22 33 -27 36 -33 21 -5 -14 -9 -8 -20 25 -7 24 -15 50
-16 57 -3 18 -25 43 -33 38 -4 -3 -13 0 -21 6 -12 8 -12 9 3 4 24 -7 21 4 -10
39 -24 28 -25 28 -10 3 11 -17 13 -29 7 -33 -9 -6 -35 40 -32 56 1 3 -12 19
-28 34 -17 16 -30 25 -30 20 0 -5 -6 -1 -13 9 -7 9 -23 18 -36 19 -13 1 -26 8
-28 17 -5 19 -83 65 -83 49 0 -6 9 -23 19 -38 22 -30 42 -102 66 -236 9 -49
18 -98 22 -109 3 -12 1 -16 -6 -11 -8 4 -10 -1 -6 -17 8 -32 8 -81 2 -355 -6
-218 -11 -260 -38 -283 -3 -3 -9 -14 -14 -25 -7 -17 -9 -18 -12 -3 -2 9 7 36
20 60 25 46 40 102 30 112 -4 4 -8 131 -9 284 -3 324 -6 386 -28 468 -18 68
-29 93 -66 142 -14 19 -25 39 -25 45 0 5 -7 12 -15 14 -12 4 -12 3 -1 -5 9 -6
10 -12 3 -16 -13 -8 -35 28 -24 38 3 4 -2 4 -12 0 -15 -6 -17 -4 -11 6 5 8 4
11 -2 7 -5 -3 -24 3 -41 14 -41 24 -46 24 -28 -3 8 -13 17 -34 21 -48 4 -14
16 -36 25 -50 10 -14 25 -52 33 -84 15 -57 27 -82 27 -57 0 24 -32 136 -42
149 -6 6 -7 12 -2 12 5 0 4 4 -2 8 -15 10 -28 52 -16 52 5 0 12 -9 15 -21 4
-13 10 -18 18 -13 8 4 10 3 5 -4 -4 -6 -1 -24 7 -39 7 -15 14 -43 15 -62 2
-18 7 -41 12 -51 27 -50 63 -231 66 -325 5 -179 12 -329 20 -377 5 -34 2 -58
-10 -88 -18 -45 -21 -122 -7 -149 6 -10 7 -27 4 -39 -11 -42 -19 -21 -21 50
-1 40 -5 85 -8 100 -3 17 -1 28 5 28 6 0 11 8 11 18 0 14 -2 15 -10 2 -8 -12
-10 -10 -10 9 0 21 -33 220 -87 531 -9 52 -18 106 -19 120 -11 93 -23 149 -39
175 -7 11 -21 43 -30 70 -10 28 -22 54 -26 59 -11 13 17 -90 35 -128 8 -18 17
-57 20 -87 3 -30 12 -90 20 -134 9 -44 18 -101 21 -127 2 -25 21 -133 40 -239
20 -106 37 -209 38 -229 1 -19 6 -41 11 -48 13 -21 16 -320 4 -387 -10 -57
-22 -84 -32 -74 -3 2 0 22 5 44 20 80 26 208 14 290 -10 73 -19 150 -19 180
-1 17 -4 32 -7 35 -6 6 -39 186 -45 250 -3 25 -16 106 -30 180 -14 74 -28 158
-30 185 -4 43 -55 271 -70 314 -3 11 -2 11 10 2 12 -10 13 -9 9 8 -3 12 -11
21 -19 21 -7 0 -11 8 -9 20 2 11 1 19 -3 19 -4 -1 -14 -1 -22 0 -13 1 -13 3 0
12 12 9 12 10 -3 5 -10 -3 -23 -6 -28 -6 -14 0 -3 -69 36 -231 18 -75 39 -181
45 -235 7 -54 14 -102 17 -106 2 -5 0 -8 -5 -8 -4 0 -17 44 -27 98 -10 53 -28
141 -41 195 -27 113 -33 139 -43 224 -6 52 -5 63 10 74 16 11 7 19 -79 67
-172 95 -171 95 -169 73 0 -11 7 -17 14 -14 7 3 25 -4 40 -14 15 -11 63 -36
107 -57 43 -20 76 -39 74 -42 -3 -2 -18 2 -34 11 -16 8 -35 15 -42 15 -7 0
-29 11 -50 23 -48 31 -112 62 -91 45 13 -11 14 -17 3 -43 l-13 -30 1 32 c1 17
-5 40 -14 50 -8 10 -14 26 -13 35 2 11 -2 15 -13 11 -10 -4 -13 -2 -8 5 5 8 2
10 -8 6 -9 -3 -39 -1 -67 6 -28 7 -62 13 -75 13 -14 0 -27 3 -30 8 -7 12 -34
11 -34 -1z m208 -49 c13 -1 21 -5 17 -10 -6 -11 -96 -3 -109 9 -6 6 7 8 30 5
21 -2 49 -4 62 -4z m-158 -51 c0 -5 -4 -10 -10 -10 -5 0 -10 5 -10 10 0 6 5
10 10 10 6 0 10 -4 10 -10z m-3 -42 c-3 -8 -6 -5 -6 6 -1 11 2 17 5 13 3 -3 4
-12 1 -19z m127 6 c10 -27 7 -204 -4 -204 -6 0 -8 31 -5 84 3 47 1 96 -5 110
-5 14 -6 26 -1 26 5 0 12 -7 15 -16z m63 -16 c-3 -8 -6 -5 -6 6 -1 11 2 17 5
13 3 -3 4 -12 1 -19z m-110 -61 c-3 -18 -11 -57 -17 -87 -7 -36 -8 -99 -3
-180 5 -69 7 -168 6 -220 0 -52 -3 -351 -6 -665 -6 -683 -4 -638 -18 -633 -8
3 -11 62 -9 198 7 615 11 1000 13 1110 1 69 -2 159 -7 200 -7 67 0 160 21 255
2 11 4 36 4 55 0 29 2 32 10 17 6 -10 9 -33 6 -50z m84 -2 c-3 -5 -8 4 -12 20
-3 17 -3 35 0 40 3 6 8 -3 12 -20 3 -16 3 -34 0 -40z m-154 33 c-3 -8 -6 -5
-6 6 -1 11 2 17 5 13 3 -3 4 -12 1 -19z m10 -46 c2 -9 3 -55 3 -102 -1 -47 -2
-114 -3 -150 0 -36 2 -126 5 -200 2 -74 1 -171 -4 -215 -7 -61 -21 -896 -18
-1068 0 -19 -4 -27 -12 -25 -9 3 -13 27 -12 79 1 41 3 250 4 464 1 215 6 415
11 445 9 50 11 266 5 522 -1 54 1 93 4 88 3 -5 4 37 2 93 -2 56 -1 98 4 94 4
-4 10 -15 11 -25z m492 -64 c6 -25 14 -63 17 -85 3 -21 8 -41 11 -46 2 -4 6
-20 9 -35 3 -15 9 -54 15 -87 6 -33 13 -80 15 -105 2 -25 8 -67 14 -95 5 -27
12 -66 14 -85 7 -54 15 -106 36 -224 11 -60 18 -112 15 -114 -2 -3 0 -12 5
-21 5 -10 11 -45 14 -80 3 -34 13 -103 22 -154 9 -51 16 -121 15 -157 0 -62
-59 -382 -60 -330 -1 14 10 82 23 150 26 134 26 167 2 305 -8 50 -17 117 -20
150 -3 33 -15 110 -26 170 -11 61 -23 133 -26 160 -3 28 -14 95 -24 150 -17
92 -24 144 -36 264 -2 24 -9 62 -16 85 -6 22 -13 46 -14 51 -2 6 -6 24 -9 40
-3 17 -10 46 -15 65 -12 44 -13 97 -1 85 4 -6 13 -31 20 -57z m-472 15 c-3
-10 -5 -4 -5 12 0 17 2 24 5 18 2 -7 2 -21 0 -30z m93 -83 c0 -5 -5 -10 -11
-10 -5 0 -7 5 -4 10 3 6 8 10 11 10 2 0 4 -4 4 -10z m603 -27 c7 -16 24 -46
37 -68 22 -38 50 -124 50 -154 0 -27 -11 -3 -26 54 -12 46 -54 135 -54 114 0
-4 17 -63 37 -124 35 -111 44 -192 48 -410 6 -332 5 -337 -9 -370 -7 -16 -18
-41 -24 -55 l-11 -25 0 25 c0 14 6 45 15 70 17 49 29 174 16 166 -5 -3 -7 9
-4 27 3 26 1 29 -8 17 -9 -12 -11 -10 -6 10 3 14 6 100 6 190 1 173 -8 225
-78 462 -11 39 -15 65 -8 61 6 -4 6 0 -1 9 -7 8 -10 18 -6 21 9 10 10 9 26
-20z m112 -49 c9 -14 14 -28 12 -31 -3 -2 3 -28 13 -56 10 -29 21 -75 24 -102
8 -71 25 -182 46 -315 26 -159 28 -185 18 -265 -7 -58 -17 -235 -18 -332 0
-14 -6 -23 -15 -23 -9 0 -12 -6 -9 -15 4 -8 2 -15 -3 -15 -21 0 -22 14 -3 40
17 24 19 41 16 147 -2 65 0 142 6 169 13 70 12 229 -4 293 -13 53 -13 52 -16
-90 -5 -278 -6 -355 -2 -414 2 -38 -1 -60 -9 -63 -6 -2 -11 -10 -11 -18 0 -8
-6 -11 -16 -7 -15 6 -15 7 1 20 14 10 19 28 21 75 2 35 1 52 -2 38 -9 -46 -26
-80 -41 -80 -8 0 -11 -5 -7 -11 3 -6 1 -14 -5 -18 -6 -4 -14 -32 -16 -62 l-5
-54 11 43 c6 25 16 42 25 42 8 0 14 -4 14 -10 0 -5 -4 -10 -9 -10 -9 0 -36
-98 -29 -105 2 -3 12 13 22 35 17 40 29 49 41 30 3 -5 0 -10 -8 -10 -8 0 -17
-8 -21 -17 -3 -10 -11 -31 -17 -48 -5 -16 -14 -72 -19 -124 -5 -51 -15 -100
-21 -108 -9 -10 -9 -20 0 -39 12 -26 6 -49 -9 -39 -5 3 -6 13 -3 21 3 9 1 19
-5 23 -8 5 -7 22 4 61 8 30 18 98 21 150 6 88 5 94 -10 81 -15 -11 -17 -11
-17 2 0 9 5 19 10 22 6 3 10 21 9 38 -1 31 -1 31 -9 7 -5 -17 -8 -19 -9 -7 -1
9 3 25 9 35 5 9 17 34 26 54 9 21 21 38 28 38 6 0 12 19 13 43 2 23 7 43 13
45 5 2 10 13 9 25 0 21 -1 21 -10 2 -7 -16 -8 -14 -4 10 2 17 7 75 11 130 3
55 8 114 9 130 7 81 8 247 2 304 -10 86 -57 303 -69 318 -5 7 -7 16 -4 22 3 5
0 12 -6 14 -8 4 -9 6 -2 6 7 1 19 -11 29 -25z m-858 -26 c-3 -7 -5 -2 -5 12 0
14 2 19 5 13 2 -7 2 -19 0 -25z m918 -53 c-2 -11 0 -27 6 -35 8 -12 9 -10 4 8
-9 31 3 28 16 -5 7 -17 13 -23 16 -15 3 7 -3 24 -12 38 -11 17 -13 30 -7 36
13 13 43 -37 35 -58 -4 -11 -3 -15 5 -10 6 3 14 1 18 -5 4 -8 3 -9 -4 -5 -17
10 -15 2 9 -52 40 -87 71 -187 76 -244 3 -32 9 -55 13 -53 4 3 4 -12 -1 -33
-5 -20 -6 -53 -4 -72 4 -31 4 -32 -4 -8 -5 14 -12 56 -15 93 -11 122 -66 329
-82 312 -3 -3 2 -22 10 -42 9 -21 18 -55 21 -76 10 -78 27 -225 31 -269 2 -25
9 -69 14 -98 13 -72 3 -241 -20 -346 -5 -22 -7 -43 -5 -46 12 -20 -61 -210
-87 -226 -5 -4 -15 -1 -21 5 -7 7 -6 12 6 17 9 3 17 12 17 20 0 8 3 14 8 14 9
0 45 78 48 102 0 9 5 40 9 70 4 29 9 69 11 88 2 19 8 69 13 110 4 41 7 78 5
81 -1 3 -5 50 -9 104 -3 55 -8 108 -11 120 -2 11 -6 38 -8 60 -4 44 -22 173
-36 250 -9 50 -38 130 -45 123 -2 -2 3 -29 10 -62 8 -32 17 -88 20 -124 4 -36
8 -69 10 -72 2 -3 6 -38 9 -79 4 -41 8 -77 10 -80 2 -3 7 -37 10 -74 3 -38 8
-73 11 -78 13 -20 5 -159 -15 -253 -6 -29 -12 -88 -14 -131 -2 -59 -7 -81 -19
-90 -10 -7 -17 -17 -17 -24 0 -6 -7 -11 -15 -11 -9 0 -12 -6 -9 -15 4 -8 1
-15 -4 -15 -24 0 -19 18 14 55 33 38 34 40 34 129 0 50 5 110 10 133 19 81 19
223 0 328 -10 55 -21 136 -24 180 -3 44 -13 116 -22 160 -8 44 -17 93 -19 108
-2 16 -13 46 -25 68 -11 22 -15 37 -9 33 9 -5 10 -2 6 12 -5 14 -2 12 13 -6
11 -14 18 -34 15 -45z m-929 -242 c-1 -153 -5 -284 -10 -292 -5 -7 -11 -194
-13 -415 -5 -502 -5 -506 -20 -506 -9 0 -11 70 -7 288 5 345 12 578 20 652 3
30 6 136 5 235 0 148 12 315 23 315 2 0 3 -125 2 -277z m1057 121 c-7 -20 -9
-18 -27 18 -22 42 -20 45 8 19 14 -13 22 -29 19 -37z m27 -29 c-13 -16 -5 -55
12 -55 6 0 8 11 3 28 -4 17 -3 23 3 17 5 -5 12 -23 16 -40 5 -22 4 -26 -4 -15
-7 11 -8 -13 -4 -80 4 -52 4 -93 1 -90 -3 3 -7 26 -8 50 -1 25 -13 76 -25 114
-23 68 -23 93 -2 80 6 -4 8 2 4 17 -6 21 -5 22 4 6 9 -13 9 -22 0 -32z m-233
13 c-3 -8 -6 -5 -6 6 -1 11 2 17 5 13 3 -3 4 -12 1 -19z m288 -163 c11 -99
-13 -326 -35 -340 -11 -7 -7 49 8 100 14 48 20 251 9 283 -5 13 -4 22 2 22 5
0 13 -29 16 -65z m50 36 c3 -5 1 -12 -4 -15 -5 -4 -12 -2 -16 4 -4 6 -11 8
-16 5 -5 -4 -9 3 -9 15 0 17 3 19 19 10 11 -5 22 -14 26 -19z m-580 -223 c3
-29 12 -91 20 -138 8 -47 17 -108 19 -136 3 -29 10 -81 16 -115 27 -166 31
-290 12 -407 -8 -50 -19 -92 -24 -92 -5 0 -7 8 -5 18 21 75 29 210 18 283 -6
35 -13 93 -16 128 -4 36 -8 68 -10 71 -2 3 -6 35 -10 71 -3 35 -12 116 -21
179 -25 189 -34 273 -33 305 1 32 23 -78 34 -167z m586 -6 c35 -39 62 -89 57
-104 -3 -7 -14 7 -25 29 -12 22 -33 52 -47 68 -14 15 -26 37 -25 49 0 15 2 16
6 6 3 -8 19 -30 34 -48z m-2 -62 c11 0 61 -106 60 -127 0 -10 -11 5 -24 34
-14 28 -38 65 -55 81 -16 17 -30 41 -30 54 0 21 2 20 21 -9 12 -18 24 -33 28
-33z m-30 -37 c27 -26 83 -131 79 -149 -2 -9 -16 10 -33 42 -16 32 -40 67 -52
78 -13 11 -23 26 -23 33 0 17 7 16 29 -4z m139 -113 c11 -8 46 -119 39 -126
-3 -3 -11 14 -18 38 -7 23 -17 50 -23 58 -22 30 -34 57 -40 90 -7 33 -6 33 14
-10 12 -24 24 -47 28 -50z m-128 18 c0 -11 63 -98 70 -98 18 0 63 -119 75
-197 4 -24 11 -45 16 -49 5 -3 9 -14 9 -25 0 -11 4 -18 9 -15 7 5 41 -94 41
-120 0 -19 -21 22 -32 64 -7 30 -13 40 -19 30 -6 -9 -9 -7 -9 9 0 12 -4 24 -9
28 -6 3 -13 27 -16 53 -8 57 -31 129 -51 159 -8 12 -14 29 -14 38 0 9 -4 14
-8 11 -13 -8 -26 6 -47 49 -11 22 -26 44 -32 48 -7 4 -13 15 -13 22 0 8 -4 15
-10 15 -15 0 -12 -15 10 -55 22 -40 25 -55 10 -55 -5 0 -10 5 -10 12 0 6 -9
22 -21 34 -19 20 -19 26 -8 63 l12 42 23 -28 c13 -15 23 -31 24 -35z m136
-128 c25 -62 31 -95 14 -85 -5 3 -12 22 -16 43 -4 20 -18 54 -31 74 -27 44
-34 88 -7 50 9 -13 27 -50 40 -82z m-170 -3 c5 -31 5 -30 -20 12 -14 23 -26
53 -26 65 0 18 3 16 20 -12 12 -19 23 -48 26 -65z m48 17 c9 -3 16 -12 16 -20
0 -8 6 -14 13 -14 23 -1 59 -101 91 -250 19 -86 20 -104 7 -96 -5 4 -15 39
-21 79 -16 95 -67 244 -79 232 -3 -3 -11 5 -18 17 -8 15 -13 18 -13 8 -2 -17
-18 16 -19 38 -1 14 1 14 23 6z m-66 -82 c-3 -12 -8 -8 -21 17 -9 18 -14 38
-10 44 8 13 35 -40 31 -61z m253 -12 c5 0 9 -12 9 -27 0 -22 2 -25 10 -13 5 8
10 11 10 5 0 -5 -4 -16 -9 -24 -7 -11 -14 -4 -30 27 -12 23 -21 52 -20 64 1
21 1 21 11 -4 5 -16 14 -28 19 -28z m-181 4 c0 -8 4 -14 8 -14 17 0 58 -119
68 -197 2 -20 11 -56 19 -80 8 -24 15 -56 15 -71 l0 -27 -15 29 c-9 16 -22 66
-30 112 -20 116 -25 131 -57 192 -28 55 -36 88 -18 77 6 -3 10 -13 10 -21z
m-91 -54 c0 -8 -6 -2 -14 14 -8 15 -12 33 -8 39 7 11 20 -20 22 -53z m264 -34
c4 4 7 -1 7 -12 0 -16 2 -17 10 -4 8 11 9 9 5 -11 -4 -14 1 -54 10 -89 23 -89
13 -84 -14 8 -13 42 -29 84 -36 92 -16 19 -27 65 -18 74 4 4 12 -9 18 -29 5
-20 13 -33 18 -29z m-291 -38 c-9 -9 -12 -7 -12 12 0 19 3 21 12 12 9 -9 9
-15 0 -24z m-275 -92 c-3 -63 -10 -123 -15 -133 -6 -10 -18 -55 -28 -101 -9
-45 -21 -82 -26 -82 -5 0 -7 8 -4 18 22 75 56 261 60 327 5 93 4 85 12 85 4 0
4 -51 1 -114z m320 42 c6 -24 14 -51 18 -60 4 -11 3 -18 -4 -18 -7 0 -14 8
-17 18 -3 9 -10 25 -15 34 -11 22 -12 68 -1 68 5 0 13 -19 19 -42z m-38 -49
c14 -31 8 -50 -10 -32 -12 12 -22 63 -12 63 5 0 14 -14 22 -31z m271 -66 c0
-13 4 -23 10 -23 5 0 13 -18 16 -40 4 -22 10 -40 15 -40 5 0 9 -15 9 -32 l-1
-33 -15 40 c-8 22 -18 49 -21 60 -4 11 -10 22 -14 25 -5 3 -11 26 -14 50 -5
33 -4 41 4 30 6 -8 11 -25 11 -37z m-434 16 c3 -6 2 -14 -3 -18 -5 -3 -17 -23
-26 -43 -10 -21 -20 -38 -24 -38 -7 0 4 46 20 83 13 29 22 34 33 16z m-92 -46
c-4 -41 -12 -83 -19 -103 -1 -3 -7 -26 -15 -53 -7 -26 -16 -50 -21 -53 -12 -7
-12 -10 16 110 14 58 25 115 25 126 0 11 4 20 10 20 6 0 7 -19 4 -47z m263 15
c-3 -7 -5 -2 -5 12 0 14 2 19 5 13 2 -7 2 -19 0 -25z m-37 2 c0 -5 -4 -10 -10
-10 -5 0 -10 5 -10 10 0 6 5 10 10 10 6 0 10 -4 10 -10z m359 -60 l-1 -25 -8
25 c-4 14 -8 32 -9 40 -1 13 0 13 9 0 5 -8 9 -26 9 -40z m-469 25 c0 -8 -4
-15 -9 -15 -13 0 -22 16 -14 24 11 11 23 6 23 -9z m170 -32 c0 -17 -8 -16 -27
2 -9 9 -12 23 -8 33 6 16 8 16 21 -2 8 -11 14 -26 14 -33z m-377 -28 c-5 -13
-23 -22 -23 -11 0 15 14 35 21 31 4 -3 6 -12 2 -20z m-17 -89 c-4 -31 -11 -58
-16 -61 -8 -5 -4 52 6 104 9 44 16 12 10 -43z m264 9 c0 -8 -4 -15 -9 -15 -13
0 -22 16 -14 24 11 11 23 6 23 -9z m407 -37 c-2 -13 -4 -5 -4 17 -1 22 1 32 4
23 2 -10 2 -28 0 -40z m20 5 c-3 -10 -5 -2 -5 17 0 19 2 27 5 18 2 -10 2 -26
0 -35z m20 -10 c-3 -10 -5 -2 -5 17 0 19 2 27 5 18 2 -10 2 -26 0 -35z m-780
-15 c-3 -7 -5 -2 -5 12 0 14 2 19 5 13 2 -7 2 -19 0 -25z m290 -8 c1 -16 -2
-30 -7 -30 -6 0 -10 17 -10 37 0 42 12 37 17 -7z m51 21 c3 -8 -1 -12 -9 -9
-7 2 -15 10 -17 17 -3 8 1 12 9 9 7 -2 15 -10 17 -17z m-338 -35 c0 -3 -4 -8
-10 -11 -5 -3 -10 -1 -10 4 0 6 5 11 10 11 6 0 10 -2 10 -4z m-35 -15 c3 -5 1
-12 -5 -16 -5 -3 -10 1 -10 9 0 18 6 21 15 7z"/>
<path d="M2821 1674 c0 -11 3 -14 6 -6 3 7 2 16 -1 19 -3 4 -6 -2 -5 -13z"/>
<path d="M3690 1521 c0 -6 4 -13 10 -16 6 -3 7 1 4 9 -7 18 -14 21 -14 7z"/>
<path d="M3760 1430 c0 -8 5 -22 10 -30 9 -13 10 -13 10 0 0 8 -5 22 -10 30
-9 13 -10 13 -10 0z"/>
<path d="M2686 1902 c-6 -24 -3 -40 9 -59 l18 -26 14 26 c10 21 11 32 3 45
-10 15 -11 14 -7 -6 3 -14 1 -20 -6 -15 -7 4 -8 0 -4 -13 7 -18 7 -18 -8 0 -8
11 -15 27 -14 35 0 12 3 10 9 -4 11 -26 12 2 1 30 -7 17 -9 16 -15 -13z"/>
<path d="M3105 1813 c3 -21 7 -81 9 -133 2 -52 10 -117 16 -143 7 -26 10 -51
6 -54 -3 -4 -6 2 -6 13 0 10 -5 26 -11 34 -8 11 -9 8 -5 -15 3 -16 8 -77 11
-135 6 -112 16 -259 20 -300 20 -191 29 -417 30 -748 0 -247 3 -332 12 -332 8
0 13 28 15 83 5 127 1 591 -6 692 -4 50 -9 126 -12 169 -3 44 -6 82 -8 85 -2
3 -7 58 -11 121 -7 120 -10 165 -18 265 l-5 60 14 -55 c7 -30 16 -80 19 -110
3 -30 10 -100 15 -155 5 -55 12 -134 15 -175 2 -41 8 -118 12 -170 4 -52 8
-256 8 -453 0 -262 3 -357 11 -357 7 0 14 21 16 48 7 66 2 734 -5 752 -3 8 -9
60 -12 115 -8 129 -13 180 -24 239 -11 58 1 49 18 -14 18 -64 28 -147 36 -290
4 -69 9 -147 11 -175 7 -76 6 -520 0 -602 -5 -59 -4 -73 8 -73 9 0 16 15 19
48 5 49 -1 658 -7 727 -2 22 -7 78 -10 125 -11 140 -30 231 -77 360 -8 22 -9
20 -5 -10 4 -32 4 -33 -6 -12 -9 17 -9 28 -1 41 6 10 7 24 3 32 -8 14 -44 174
-54 240 -3 20 -8 79 -12 130 -10 153 -11 163 -23 167 -8 3 -10 -8 -6 -35z"/>
<path d="M3130 1828 c0 -2 5 -19 10 -38 6 -19 13 -75 16 -125 8 -120 71 -411
120 -551 8 -23 17 -68 19 -100 3 -33 7 -88 10 -124 25 -318 33 -614 21 -798
-4 -71 -3 -92 7 -92 8 0 14 16 16 38 14 143 -3 727 -23 817 -3 11 -8 70 -11
130 -5 73 -15 135 -31 185 -37 118 -94 376 -105 475 -14 135 -23 178 -36 183
-7 2 -13 2 -13 0z"/>
<path d="M3365 1770 c-4 -6 -12 -7 -18 -3 -7 4 -6 0 2 -10 18 -22 26 -21 28 3
2 22 -2 25 -12 10z"/>
<path d="M3375 1703 c3 -15 15 -46 26 -70 10 -23 19 -47 19 -52 0 -6 3 -11 8
-11 17 0 42 -110 58 -247 1 -12 5 -26 8 -31 3 -5 8 -33 11 -63 10 -104 81
-483 88 -466 3 9 -1 53 -9 97 -9 45 -13 84 -10 88 3 3 6 -3 6 -13 0 -10 2 -16
5 -13 3 2 1 29 -5 58 -6 29 -10 103 -11 164 -1 100 -10 168 -40 279 -17 62
-27 41 -13 -25 8 -35 17 -74 20 -88 3 -14 7 -68 9 -120 l3 -95 -10 75 c-14
112 -67 371 -82 400 -7 14 -17 34 -24 45 -6 11 -21 41 -32 68 -23 52 -36 62
-25 20z m185 -653 c0 -22 -2 -40 -4 -40 -2 0 -6 18 -8 40 -2 22 0 40 4 40 5 0
8 -18 8 -40z m7 -82 c-3 -8 -6 -5 -6 6 -1 11 2 17 5 13 3 -3 4 -12 1 -19z"/>
<path d="M3556 1647 c3 -10 9 -15 12 -12 3 3 0 11 -7 18 -10 9 -11 8 -5 -6z"/>
<path d="M460 1420 c-24 -27 -34 -60 -18 -60 4 0 24 17 45 36 21 20 30 34 21
31 -12 -4 -15 -2 -11 9 8 23 -10 15 -37 -16z m12 -22 c-7 -7 -12 -8 -12 -2 0
14 12 26 19 19 2 -3 -1 -11 -7 -17z"/>
<path d="M2622 1413 c-19 -48 -29 -129 -30 -240 -1 -101 -3 -132 -18 -223 -5
-35 -7 -78 -19 -560 -4 -140 -8 -285 -9 -323 -1 -47 2 -67 10 -67 19 0 23 25
23 150 0 293 15 768 27 835 3 17 7 89 9 160 3 132 10 218 21 268 3 15 4 27 1
27 -3 0 -9 -12 -15 -27z"/>
<path d="M396 1364 c-4 -9 -2 -22 4 -29 5 -6 6 -16 2 -21 -4 -4 1 -2 10 5 19
14 21 61 2 61 -7 0 -15 -7 -18 -16z"/>
<path d="M3950 1161 c0 -5 11 -18 24 -28 13 -11 33 -36 44 -57 19 -36 21 -37
31 -17 13 23 -4 62 -24 55 -6 -3 -21 9 -33 26 -22 29 -42 39 -42 21z"/>
<path d="M4065 1031 c-16 -28 -14 -104 5 -140 l18 -36 11 25 c11 25 11 25 6
-4 -7 -36 24 -125 37 -103 4 9 4 26 -1 39 -6 12 -10 19 -11 13 -1 -15 -20 18
-20 35 0 13 1 13 10 0 14 -22 12 -4 -5 36 -8 19 -11 42 -8 51 5 12 3 14 -7 8
-9 -6 -12 -4 -8 6 8 21 -17 86 -27 70z m15 -56 c0 -5 -5 -3 -10 5 -5 8 -10 20
-10 25 0 6 5 3 10 -5 5 -8 10 -19 10 -25z m0 -40 c0 -7 6 -15 13 -18 9 -3 8
-8 -3 -18 -8 -8 -12 -10 -8 -5 4 5 1 18 -7 30 -17 24 -20 40 -5 31 6 -3 10
-12 10 -20z"/>
<path d="M4221 448 c-1 -15 4 -30 9 -33 12 -7 12 12 0 40 -8 18 -9 17 -9 -7z"/>
</g>
</svg>
