<svg xmlns="http://www.w3.org/2000/svg" xmlns:xlink="http://www.w3.org/1999/xlink" version="1.1" width="1000" height="1000" viewBox="0 0 1000 1000" xml:space="preserve">
<desc>Created with Fabric.js 3.5.0</desc>
<defs>
</defs>
<rect x="0" y="0" width="100%" height="100%" fill="rgba(255,255,255,0)"/>
<g transform="matrix(9.2127 0 0 9.2127 515.1974 499.9979)" id="655177">
<path style="stroke: none; stroke-width: 1; stroke-dasharray: none; stroke-linecap: butt; stroke-dashoffset: 0; stroke-linejoin: miter; stroke-miterlimit: 10; is-custom-font: none; font-file-url: none; fill: rgb(16,24,32); fill-rule: nonzero; opacity: 1;" transform=" translate(-275, -178.7703)" d="M 245.1029 199.96194 c -6.91464 0.59695 -11.73996 2.98474 -14.47597 7.16337 v -23.72865 c 0.5472 -4.12888 2.78575 -7.01413 6.66591 -8.55624 c 2.48728 -0.94517 6.01922 -1.44262 10.64556 -1.44262 l 37.3092 -0.04975 c 6.56642 -0.44771 11.39174 -3.48219 14.42622 -9.0537 c 2.8355 -5.22329 3.53194 -10.84454 2.03957 -16.86376 c -1.54211 -6.2182 -5.07405 -11.14301 -10.49632 -14.77444 c 8.00904 1.29338 14.7247 5.07405 20.04747 11.29225 c 5.42227 6.31769 8.10853 13.63029 8.10853 21.93781 c 0 9.25268 -3.28321 17.16223 -9.79988 23.72865 c -6.51667 6.61616 -14.37648 9.89937 -23.57941 9.89937 c -23.47992 0 -37.11021 0.14924 -40.89088 0.44771 z M 285.84454 163.00097 c 0.84568 0 1.54211 0.29847 2.08931 0.89542 c 0.59695 0.59695 0.89542 1.29338 0.89542 2.08931 c 0 0.79593 -0.24873 1.49237 -0.79593 2.03957 c -0.59694 0.64669 -1.44262 0.94517 -2.53703 0.94517 h -9.94912 c -6.61616 0.04975 -9.89937 0.04975 -9.89937 0.04975 l -0.04975 -6.01922 z M 319.67155 183.09818 c 2.73601 -5.42227 4.07914 -11.14301 4.07914 -17.21197 c 0 -10.49632 -3.68117 -19.45052 -11.04352 -26.91236 c -7.41209 -7.41209 -16.31655 -11.14301 -26.71338 -11.14301 h -41.83604 c -4.97456 0.14924 -9.20294 2.08931 -12.68512 5.72074 c -3.48219 3.63143 -5.22329 7.90955 -5.22329 12.93386 c 0 43.32841 0.04975 65.11697 0.14924 65.3657 c 0.19898 4.92481 2.08931 9.15319 5.62125 12.63538 c 3.63143 3.48219 7.90955 5.22329 12.88411 5.22329 c 5.12379 0 9.45166 -1.84059 13.08309 -5.47202 c 3.63143 -3.63143 5.42227 -8.05878 5.42227 -13.18258 v -7.16337 c 12.03843 11.93894 19.05256 18.90333 21.09213 20.8434 c 3.53194 3.33296 7.76031 4.97456 12.58563 4.97456 c 5.12379 0 9.55115 -1.84059 13.18258 -5.47202 c 3.63143 -3.63143 5.42227 -8.05878 5.42227 -13.23233 c 0 -5.22329 -1.79084 -9.65064 -5.42227 -13.28207 c 0 0.04975 -0.49745 -0.44771 -1.54211 -1.49237 c 4.67609 -3.53194 8.30751 -7.90955 10.94403 -13.13284 z" stroke-linecap="round"/>
</g>
</svg>